<svg xmlns="http://www.w3.org/2000/svg" width="200" height="150"><path fill="#fff" d="M64.808 96.066c0-2.582-.609-3.797-2.582-3.797H58.73c-.458 0-.612-.154-.612-.688v-1.75c0-.454.153-.604.761-.604.764 0 4.406.229 11.707.229 6.383 0 10.028-.229 10.942-.229.453 0 .605.151.605.533v1.901c0 .455-.151.608-.605.608h-3.194c-2.28 0-3.645 1.36-3.722 2.961-.078.916-.228 5.473-.228 9.877v9.43c0 3.793.074 9.189.228 11.625.229 3.496.836 6.986 2.662 9.423 2.584 3.49 6.688 4.709 10.333 4.709 3.491 0 7.75-1.374 10.18-3.646 2.895-2.891 4.408-7.297 4.408-12.848v-13.68c0-6.08-.609-12.771-.838-14.514-.229-1.979-1.44-3.34-3.114-3.34h-2.737c-.453 0-.607-.23-.607-.539v-1.902c0-.454.153-.604.607-.604.763 0 4.257.229 9.271.229 4.714 0 7.145-.229 7.75-.229.687 0 .764.229.764.604v1.75c0 .455-.077.688-.458.688H110.1c-2.74 0-3.043 2.125-3.191 2.961-.15.918-.15 11.551-.15 12.541 0 1.062-.15 14.284-.451 17.325-.461 6.226-2.285 10.94-6.388 14.585-3.193 2.893-8.057 4.711-13.831 4.711-3.648 0-8.056-.604-10.943-1.818-4.41-1.822-7.449-5.32-8.97-10.18-1.065-3.351-1.365-8.367-1.365-18.324l-.003-17.998zm50.612 30.243c.303 0 .456.153.456.607.151 2.43.763 5.32 2.89 8.668 2.277 3.641 6.23 5.466 10.03 5.466 4.099 0 9.875-2.581 9.875-8.886 0-6.988-3.188-9.275-11.246-12.311-2.431-.908-7.446-3.043-11.094-6.381-2.583-2.439-3.8-6.232-3.8-10.869 0-4.256 1.673-7.75 5.318-10.646 3.043-2.578 6.385-3.646 10.793-3.646 5.014 0 8.053 1.211 9.571 1.824.763.305 1.218.147 1.599-.229l.982-.986c.309-.307.607-.451 1.062-.451.457 0 .608.451.608 1.213 0 1.217 1.218 11.854 1.218 12.615 0 .307-.15.453-.457.531l-1.215.385c-.308.072-.611 0-.763-.463-.763-2.127-1.978-5.168-4.714-8.051-1.975-2.128-4.403-3.192-7.898-3.192-6.082 0-8.514 4.862-8.514 7.677 0 2.586.307 4.859 2.126 6.838 1.979 1.979 6.231 3.799 9.274 4.717 4.4 1.365 8.051 2.886 10.939 5.922 2.428 2.588 3.795 5.775 3.795 10.873 0 9.268-6.074 16.861-16.104 16.861-6.232 0-9.881-1.365-12.92-3.646-.911-.607-1.366-.917-1.821-.917s-.763.608-1.216 1.371c-.454.759-.76.915-1.365.915s-.916-.458-.916-1.219c.152-.918 1.215-13.228 1.365-14.135.08-.457.154-.604.458-.604l1.684.149zm84.35 4.56c.23.227.306.453.15.758-4.559 6.539-11.855 12.768-22.643 12.768-9.731 0-15.199-2.89-19.911-7.146-5.625-5.011-8.207-13.827-8.207-20.513 0-7.449 2.431-14.592 7.75-20.371 4.103-4.406 10.634-8.053 19.756-8.053 6.994 0 12.614 2.127 15.349 3.646 1.062.61 1.37.61 1.521 0l.604-1.979c.152-.451.305-.451 1.215-.451.912 0 1.066.147 1.066 1.22 0 1.367 1.518 13.521 1.818 15.8.08.459 0 .688-.303.771l-1.444.455c-.38.146-.606-.156-.834-.77-.916-2.732-2.737-6.527-5.927-9.875-3.347-3.191-7.293-5.624-13.226-5.624-12.153 0-17.173 10.944-17.173 21.89 0 4.707 1.37 13.676 6.99 19.754 5.021 5.317 9.424 5.924 13.07 5.924 8.356 0 14.965-4.176 18.16-8.812.377-.533.68-.758.912-.533l1.307 1.141z"/><g fill="#FFF"><path d="M45.817 124.244c-3.136 7.646-9.134 18.109-19.952 24.703-10.836-6.562-16.866-17.021-20.021-24.653-2.902-7.034-3.966-13.009-4.232-14.761 1.295-.729 2.588-1.08 4.047-1.083h.015c1.02 0 2.463.188 3.294.427l.459.137c.436.129.883.258 1.341.387 1.6.463 3.419.933 4.785.933h.009a20.247 20.247 0 006.603-1.146c.767-.271 1.681-.562 2.654-.689l.884-.062h.05l1.367.121c.83.146 1.612.392 2.267.621a20.103 20.103 0 006.591 1.133h.021c.925-.002 2.128-.213 3.79-.656.681-.184 1.37-.389 2.027-.581l.771-.229c.821-.234 2.326-.433 3.354-.438h.011c1.454 0 2.787.354 4.066 1.046-.257 1.711-1.297 7.712-4.201 14.79M.945 98.156l15.759 3.449c-.139.242-.268.484-.388.734L.893 100.283c.002-.676.022-1.394.052-2.127m.544-5.76l16.369 7.582c-.31.357-.602.736-.863 1.143L1.023 96.645c.094-1.366.244-2.788.466-4.249m.429-2.458c.633.143 1.883.381 3.5.554l13.294 8.601a8.443 8.443 0 00-.509.51L1.756 90.797c.055-.287.103-.57.162-.859m7.081.742c1.708 0 3.32-.146 4.822-.426l6.709 7.518c-.508.295-.987.631-1.438 1.004l-11.08-8.107c.326.006.65.013.987.011m8.564-1.446l4.451 7.824c-.301.111-.596.24-.883.387l-5.663-7.566a29.314 29.314 0 002.095-.645m5.888-2.839l1.355 10.013a10.46 10.46 0 00-2.173.444l-3.732-8.121a27.428 27.428 0 004.55-2.336m2.336-1.709c.33.279.667.541 1.006.797l-.604 10.896c-.125-.008-.249-.021-.379-.021h-.014c-.131 0-.26.019-.391.021l-.604-10.915c.437-.321.772-.594.986-.778m2.327 1.709a26.78 26.78 0 004.514 2.332l-3.726 8.105a10.617 10.617 0 00-2.146-.432l1.358-10.005zm5.859 2.835c.95.324 1.695.522 2.102.625l-5.669 7.58a9.336 9.336 0 00-.885-.389l4.452-7.816zm3.787.968c1.662.292 3.383.438 5.146.438.213 0 .413-.007.618-.014L32.441 98.74a10.429 10.429 0 00-1.429-.982l6.748-7.56zm8.334.279a28.402 28.402 0 003.565-.586c.058.286.108.569.163.858l-16.483 8.819a7.5 7.5 0 00-.52-.504l13.275-8.587zm4.005 1.873c.23 1.494.385 2.949.48 4.344l-15.96 4.475c-.278-.43-.583-.83-.919-1.215l16.399-7.604zm.611 7.959l-15.409 2.062c-.12-.246-.25-.492-.388-.729l15.747-3.449c.028.729.048 1.44.05 2.116m-4.699 3.304c-.98.004-2.596.18-3.6.473l-.714.211c-.67.197-1.374.408-2.073.596-.956.254-2.322.586-3.394.615a10.456 10.456 0 00-.69-2.601l15.159-1.138a57.21 57.21 0 01-.128 2.881c-1.386-.644-2.992-1.004-4.56-1.037m-.064 1.939h-.012c-.983 0-2.603.179-3.604.472l-.694.207c-.673.196-1.382.406-2.084.599l.117.438-.117-.438c-1.006.271-2.47.628-3.56.628h-.017a19.28 19.28 0 01-6.293-1.082c-.649-.229-1.517-.508-2.427-.663a8.656 8.656 0 00-2.547-.064c-1.051.138-2.027.447-2.843.732a19.325 19.325 0 01-6.308 1.098h-.006c-1.244 0-2.991-.445-4.541-.891l-1.797-.523c-.909-.266-2.43-.465-3.546-.465h-.016a9.937 9.937 0 00-4.432 1.07 52.229 52.229 0 01-.095-.965 10.088 10.088 0 014.604-1.141h.014c1.024 0 2.467.186 3.295.428l1.8.523.124-.438-.122.438c1.686.479 3.435.928 4.787.928h.009a20.215 20.215 0 006.602-1.15c.767-.271 1.68-.564 2.65-.689l.951-.062 1.354.116c.844.146 1.654.41 2.267.626a20.086 20.086 0 006.588 1.132h.02c.925 0 2.095-.202 3.791-.656.705-.188 1.417-.4 2.092-.602l.711-.209c.818-.24 2.323-.438 3.351-.438h.009c1.538 0 3.15.4 4.474 1.088-.031.368-.064.705-.095 1.021a10.004 10.004 0 00-4.454-1.068m-20.101-1.909l-.001.066-.002-.066a8.364 8.364 0 00-1.06.072c-1.058.135-2.033.445-2.845.732a19.3 19.3 0 01-5.636 1.084 9.553 9.553 0 019.497-8.271h.013c4.782 0 8.833 3.573 9.504 8.244a19.411 19.411 0 01-5.559-1.064c-.649-.228-1.513-.506-2.423-.664l-.006.021.003-.021a8.417 8.417 0 00-1.485-.133M.907 101.754l15.164 1.143a10.604 10.604 0 00-.683 2.631c-1.226-.049-2.848-.459-4.303-.867l-1.797-.525c-.911-.264-2.432-.463-3.544-.463h-.018c-1.609 0-3.266.403-4.679 1.08a57.13 57.13 0 01-.14-2.999m45.046 5.748h-.014c-.979.002-2.594.18-3.605.473l-.773.229c-.649.19-1.328.396-2.004.571l.115.438-.116-.438c-1.583.43-2.714.629-3.56.635h-.02c-1.462 0-3.736-.188-6.293-1.085-.69-.242-1.523-.515-2.426-.663-.913-.153-1.707-.178-2.548-.062-1.059.143-2.031.449-2.844.735a19.504 19.504 0 01-6.305 1.097h-.009c-1.253 0-2.998-.451-4.539-.896l-.124.438.122-.438c-.454-.127-.9-.261-1.33-.386l-.466-.137c-.917-.269-2.433-.466-3.543-.466h-.018c-1.507.005-2.851.353-4.185 1.048a44.999 44.999 0 01-.139-.978 9.026 9.026 0 014.324-1.119h.015c1.025 0 2.47.188 3.295.431l1.797.521.127-.433-.124.433c1.688.479 3.438.929 4.788.929h.009a20.293 20.293 0 006.603-1.148c.77-.272 1.686-.564 2.651-.688l.883-.062h.057l1.359.119c.841.146 1.654.404 2.27.625a20.176 20.176 0 006.591 1.131h.019c.922 0 2.089-.203 3.791-.658a82.49 82.49 0 002.106-.604l.694-.202c.813-.24 2.317-.438 3.352-.438h.009a9.07 9.07 0 014.341 1.111c-.049.4-.095.723-.129.945a9.197 9.197 0 00-4.204-1.008m5.601-9.506l-.086-1.555a53.212 53.212 0 00-.52-4.482l-.175-1.046a42.843 42.843 0 00-.331-1.679l-.102-.469-.461.133c-.017.009-.759.218-2.015.427l-3.039.345a29.11 29.11 0 01-1.92.062 28.326 28.326 0 01-5.172-.461l-1.067-.207a.217.217 0 00-.056-.016c-.022-.005-.88-.185-2.183-.631l-1.416-.525a26.401 26.401 0 01-4.765-2.498l-1.392-1.019a14.262 14.262 0 01-.772-.642l-.31-.269-.298.28c-.01.009-.259.242-.733.615l-1.421 1.024a27.458 27.458 0 01-4.793 2.515l-1.417.526a27.953 27.953 0 01-2.218.661l-1.233.271c-1.449.268-3.008.41-4.658.41-.811 0-1.581-.028-2.306-.082l-3.044-.354a23.335 23.335 0 01-1.962-.381l-.453-.115-.102.456c-.098.45-.18.896-.262 1.343L.64 92a52.164 52.164 0 00-.5 4.393l-.089 1.564A58.632 58.632 0 000 100.164l.012 1.518c.084 4.258.594 7.198.634 7.438.048.358.949 7.221 4.358 15.491 3.206 7.771 9.34 18.396 20.385 25.099l.48.29.474-.289c11.031-6.729 17.136-17.378 20.319-25.146 3.391-8.279 4.277-15.146 4.318-15.51.042-.236.535-3.143.616-7.356l.012-1.507a59.925 59.925 0 00-.054-2.196"/><path d="M38.635 119.26a.712.712 0 01-.517.215l-3.436.008a.736.736 0 01-.733-.729c0-.398.33-.729.731-.729l.56-.004c0 .004.003.008.003.01l.009-.01h.736l2.133-.006c.4 0 .729.332.729.731a.75.75 0 01-.215.514m-.679 1.256c-.129.129-.31.193-.529.193l-2.095.004c-.351 0-.595-.26-.688-.689l.037.002 3.436-.004c.019 0 .036-.014.055-.014-.04.213-.102.394-.216.508m-.86 8.841l-1.391.002-.372-8.102 2.096-.002c.016 0 .027-.009.045-.012l-.378 8.114zm.922 1.14a.595.595 0 01-.592.593l-2 .004-.004.275v-.275a.59.59 0 01-.586-.596.59.59 0 01.586-.588l1.131-.004.869-.002a.596.596 0 01.596.593m-1.618 5.006a.435.435 0 01-.436-.442l-.154-3.42h1.181l-.157 3.428a.432.432 0 01-.434.434m-2.759-19.201c0-.452.184-.831.379-1.224.233-.477.492-1 .385-1.66.335.139.77.376 1.094.717-.006.006-.013.014-.018.016-.079.088-.161.182-.228.261-.016.015-1.4 1.358-.405 3.062h-.175c-.098.004-.193.021-.289.037a1.28 1.28 0 01-.743-1.209m3-2.925c.077-.217.078-.45.04-.668.562.512 1.225 1.318 1.234 2.296.008 1.21-.762 2.14-1.071 2.466h-.196c-.243-.332-.712-1.088-.214-1.924.099-.167.55-.863.607-.996.077-.162.068-.316.068-.316a2.487 2.487 0 01-.209.271c-.129.143-.574.604-.714.771-.733.892-.242 1.863-.048 2.195l-.635.002c-1.094-1.469.077-2.621.147-2.689.082-.092.16-.18.236-.262.303-.335.568-.621.755-1.146m1.625.465c.233-.283.449-.465.626-.576-.138 1.26.517 2.52.529 2.529.312 1.078-.753 1.6-1.015 1.711a1.312 1.312 0 00-.293-.037h-.554c.405-.521.905-1.391.898-2.469 0-.455-.191-1.158-.191-1.158m.718 3.97c.613-.373 1.265-1.105.939-2.226-.006-.017-.779-1.507-.4-2.69l.127-.402-.418.049c-.065.008-.633.105-1.288.838-.647-1.051-1.693-1.695-1.758-1.732l-1.04-.612.675 1.004c.12.179.438.774.304 1.151a1.847 1.847 0 01-.273.521c-.692-.699-1.746-.986-1.791-.997l-.543-.146.223.514c.304.701.064 1.188-.212 1.746-.206.42-.436.891-.433 1.469 0 .75.371 1.232.731 1.504a1.268 1.268 0 00-.427.949c.003.48.275.896.672 1.113.059.645.343 1.054.705 1.25l.383 8.301a1.118 1.118 0 00-.875 1.082c0 .57.431 1.025.975 1.109l.16 3.465c0 .539.44.979.979.979a.975.975 0 00.979-.964l.16-3.47c.57-.062 1.024-.531 1.021-1.117 0-.553-.4-.992-.92-1.092l.382-8.295a1.1 1.1 0 00.318-.206c.249-.249.382-.616.41-1.074.093-.054.19-.106.271-.181.239-.242.375-.565.372-.901a1.276 1.276 0 00-.408-.939m-22.289 1.69l-3.435.006a.73.73 0 01-.521-1.246.708.708 0 01.517-.217h.558l.003.007.009-.007h.739l1.08-.002h1.051c.403 0 .728.326.733.729a.73.73 0 01-.734.73m-.15 1.047c-.125.124-.306.188-.539.188l-2.091.007c-.346 0-.594-.267-.689-.692.015 0 .023.01.036.01l3.434-.01c.021 0 .04-.007.059-.007-.039.209-.099.393-.21.504m-.867 8.836l-1.392.004-.374-8.102h.004l2.093-.002c.016 0 .027-.006.043-.006l-.374 8.106zm.917 1.138a.6.6 0 01-.592.596h-1.996l-.002.273v-.273a.591.591 0 01-.591-.592c0-.326.266-.596.591-.596h1.13l.866-.005a.6.6 0 01.594.597m-1.613 5.004a.439.439 0 01-.44-.442l-.155-3.417 1.185-.004-.159 3.434a.43.43 0 01-.431.429m-2.761-19.197c0-.451.184-.83.38-1.225.233-.479.492-1.002.385-1.662.334.143.772.377 1.09.717-.007.006-.012.016-.02.021-.076.079-.158.172-.225.245-.017.019-1.4 1.36-.406 3.067h-.17c-.089 0-.172.029-.259.053-.06-.019-.773-.302-.775-1.216m2.997-2.923c.078-.22.078-.453.041-.675.561.511 1.228 1.315 1.236 2.299.01 1.209-.761 2.139-1.073 2.465h-.192c-.242-.334-.712-1.084-.215-1.92.1-.174.551-.867.609-1.002.07-.164.062-.312.062-.312a2.39 2.39 0 01-.206.271c-.132.143-.573.602-.711.771-.738.895-.243 1.862-.053 2.194l-.636.004c-1.092-1.467.075-2.621.147-2.688.08-.096.159-.181.231-.258.31-.337.574-.624.76-1.149m1.625.462a2.71 2.71 0 01.628-.574c-.137 1.258.517 2.514.53 2.525.311 1.078-.754 1.603-1.013 1.711a1.35 1.35 0 00-.293-.034h-.554c.404-.528.908-1.39.897-2.47-.002-.457-.195-1.158-.195-1.158m.722 3.975c.616-.377 1.264-1.111.941-2.226-.008-.017-.783-1.503-.404-2.692l.13-.406-.422.049c-.063.01-.629.104-1.283.839-.651-1.052-1.697-1.692-1.76-1.729l-1.031-.607.668.996c.125.189.436.779.301 1.158a2.036 2.036 0 01-.272.521c-.69-.7-1.745-.989-1.792-.997l-.542-.146.223.519c.304.692.065 1.183-.212 1.743-.204.414-.434.892-.434 1.47 0 .806.404 1.265.732 1.506-.016.021-.039.021-.055.041a1.27 1.27 0 00-.371.899c0 .479.272.896.669 1.115.056.582.317 1.03.707 1.25l.383 8.301a1.12 1.12 0 00-.874 1.087c0 .569.427 1.021.973 1.102L14 135.1c0 .541.44.982.982.982a.979.979 0 00.978-.971l.16-3.469c.259-.027.501-.125.687-.312.217-.217.334-.506.332-.807 0-.547-.398-.985-.919-1.094l.381-8.283c.12-.058.237-.115.33-.213.242-.242.372-.604.402-1.062.381-.225.643-.631.643-1.104a1.269 1.269 0 00-.411-.923m11.437 3.017a1.133 1.133 0 01-.798.334l-4.806.005a1.135 1.135 0 01-1.133-1.124c0-.625.509-1.135 1.131-1.135 0 0 3.2 0 3.208-.006h1.6c.622 0 1.126.506 1.126 1.125.002.303-.114.586-.328.801m-1.76 1.912l-2.93.002h-.003c-.468 0-.893-.506-1.056-1.041.049.004.096.016.145.016l4.806-.01c.059 0 .117-.012.177-.018-.174.522-.649 1.051-1.139 1.051m-.361 12.239l-2.157.002-.539-11.709c.042.008.079.019.121.019h.003l2.93-.005c.062 0 .12-.018.18-.021l-.538 11.714zm1.289 1.48a.938.938 0 01-.936.938l-2.789.006a.938.938 0 01-.006-1.876l2.105-.004h.683c.519.001.94.421.943.936m-1.653 6.397a.71.71 0 01-.208.504.686.686 0 01-.503.211h-.003a.69.69 0 01-.505-.211.695.695 0 01-.211-.517l-.227-4.894 1.882-.006-.225 4.913zm-4.679-26.244c-.001-.651.26-1.188.539-1.762.358-.729.727-1.479.487-2.459.481.178 1.206.52 1.72 1.094-.062.068-.122.14-.188.209-.106.115-.217.234-.313.35-.021.02-1.987 1.938-.452 4.316h-.238c-.144 0-.279.023-.414.061-.123-.052-1.138-.485-1.141-1.809m4.005-4.125c.148-.416.095-.879-.014-1.272.845.688 2.095 1.974 2.105 3.587.016 1.771-1.138 3.125-1.558 3.561h-.137c-.225-.344-.471-.889-.471-1.515-.003-1.192.582-1.896.582-1.896s-.738.502-.866 1.604c-.06.529.055 1.085.4 1.809h-.701c-.267-.396-.988-1.529-.233-2.806.141-.233.895-1.21.978-1.396.098-.225.089-.438.089-.438-.105.178-.288.375-.288.375-.184.2-.801.848-.998 1.078-1.121 1.359-.197 2.854-.006 3.186h-.423c-1.646-2.148.081-3.852.177-3.941.11-.126.216-.24.318-.354.424-.463.787-.862 1.046-1.582m3.477.261c-.353 1.693.215 3.088.231 3.127.45 1.554-.662 2.318-1.005 2.514a1.852 1.852 0 00-.346-.037l-1.093.002c.57-.688 1.385-1.951 1.373-3.558a3.947 3.947 0 00-.196-1.171c.398-.469.77-.732 1.036-.877m-.178 5.895c.562-.441 1.377-1.383.924-2.947-.006-.018-.634-1.58-.086-3.299l.126-.406-.421.053c-.031.004-.763.111-1.623 1.021-.827-1.73-2.607-2.804-2.705-2.859l-.904-.531.531.908c.005.01.594 1.025.346 1.729-.11.309-.244.541-.398.762-.94-1.002-2.375-1.35-2.436-1.359l-.528-.125.217.498c.445 1.021.1 1.723-.298 2.533-.293.601-.596 1.222-.594 2.005 0 1.081.577 1.757 1.087 2.099-.4.312-.661.789-.661 1.328.002.654.388 1.221.941 1.496.091.621.465 1.26.99 1.564l-.017.002.55 11.902a1.482 1.482 0 00-1.224 1.455c.001.771.6 1.402 1.355 1.469l.228 4.926c0 .336.132.649.368.894.24.233.553.368.889.368h.006a1.26 1.26 0 001.256-1.25l.228-4.932a1.482 1.482 0 001.426-1.479 1.49 1.49 0 00-1.287-1.463l.548-11.938h-.003c.535-.324.926-.951 1.007-1.551.147-.074.286-.172.407-.291a1.65 1.65 0 00.489-1.188 1.674 1.674 0 00-.734-1.394"/></g><path fill="#FFF" d="M10.546 23.316H8.817c-.204 0-.379-.008-.429-.238-.066-.301.218-.361.218-.361-.025.018-.095.15-.039.288.05.123.152.106.323.106l1.934-.002c.001.187-.278.207-.278.207m-.466 7.513h-.841c-.144-.002-.272-.028-.325-.187-.063-.189.148-.234.148-.234-.017.012-.043.072-.005.169.036.089.114.083.234.084l.985.005c.001.163-.196.163-.196.163"/><path fill="#FFF" d="M10.8 23.494l-2.333.004c-.222 0-.421-.189-.422-.477 0-.275.203-.477.42-.477l2.334-.002c.217 0 .42.209.421.473 0 .266-.203.479-.42.479m-.567.582l-1.196.002a.641.641 0 01-.505-.247l2.202-.005a.626.626 0 01-.501.25m-.837.367c.256.01.585.008.93-.037l-.246 5.468-.586.001-.098-5.432zm-.473-.039s.085.014.226.022l.203 5.446h-.157l-.272-5.468zm1.759 6.213a.415.415 0 01-.409.412l-1.259.002a.413.413 0 01-.413-.41c0-.223.183-.412.411-.412h1.258a.41.41 0 01.412.408m-.769 2.979c0 .15-.108.271-.267.271a.268.268 0 01-.268-.27l-.11-2.23h.14l.08 2.154c0 .164.076.197.076.197l-.043-2.354.492-.001-.1 2.233zm-2.07-12.171c0-.295.12-.539.247-.797.154-.313.326-.664.245-1.104.162.062.367.172.546.351-.114.138-.238.271-.306.354-.477.565-.66 1.238-.149 1.992h-.073c-.006-.003-.507-.183-.51-.796m1.683-2.493c.425.344.949.992.951 1.736 0 .673-.576 1.441-.713 1.542a1.336 1.336 0 01-.252-.752c-.001-.554.27-.879.27-.879s-.4.258-.459.771c-.028.25.026.515.196.86h-.243c-.065-.104-.534-.688-.143-1.351.065-.108.359-.533.396-.619.044-.105.041-.203.041-.203a1.592 1.592 0 01-.133.174c-.084.092-.372.391-.462.5-.561.68-.015 1.438.011 1.499h-.228c-.249-.286-.332-.563-.308-.981.057-.94 1.189-1.057 1.076-2.297m1.565.797a2.79 2.79 0 00.131 1.373c.201.715-.341 1.047-.46 1.111l-.017-.006-.542.002c.339-.443.611-1.023.611-1.541 0-.158-.018-.307-.048-.45l-.044-.151c.135-.159.264-.27.369-.338m.096 2.607c.288-.259.549-.707.368-1.338l-.007-.021c-.002-.006-.287-.709-.041-1.494l.083-.26-.269.035c-.039.004-.356.055-.741.442-.321-.649-.933-1.132-1.569-1.45.234.742.264 1.016.073 1.333a1.97 1.97 0 00-.986-.483l-.306-.045.124.283c.196.454.042.768-.138 1.135-.132.27-.282.573-.282.951 0 .493.251.809.489.982a.825.825 0 00-.273.613c0 .312.16.582.4.717a.984.984 0 00.472.562l.277 5.591a.744.744 0 00.072 1.47l.112 2.24c0 .332.269.602.602.6a.595.595 0 00.603-.594l.1-2.248a.744.744 0 00.066-1.472l.249-5.576a.97.97 0 00.494-.58.839.839 0 00.397-.713.832.832 0 00-.369-.68m13.317.98h-1.729c-.203 0-.378-.008-.428-.238-.066-.301.219-.361.219-.361-.025.018-.095.15-.039.288.05.123.151.106.322.106l1.934-.002c0 .187-.279.207-.279.207m-.467 7.513h-.841c-.143-.002-.272-.028-.324-.187-.063-.189.147-.234.147-.234-.016.012-.044.072-.004.169.036.089.114.083.234.084l.984.005c.001.163-.196.163-.196.163"/><path fill="#FFF" d="M24.758 23.494l-2.333.004c-.221 0-.42-.189-.421-.477 0-.275.202-.477.42-.477l2.333-.002c.217 0 .422.209.423.473 0 .266-.205.479-.422.479m-.567.582l-1.196.002a.636.636 0 01-.503-.247l2.202-.005a.631.631 0 01-.503.25m-.837.367c.254.01.586.008.929-.037l-.246 5.468-.585.001-.098-5.432zm-.473-.039s.085.014.227.022l.202 5.446h-.157l-.272-5.468zm1.759 6.213a.415.415 0 01-.409.412l-1.259.002a.412.412 0 01-.412-.41c0-.223.183-.412.411-.412h1.259a.41.41 0 01.41.408m-.768 2.979c0 .15-.11.271-.267.271a.27.27 0 01-.268-.27l-.11-2.23h.139l.08 2.154c0 .164.077.197.077.197l-.042-2.354.492-.001-.101 2.233zm-2.07-12.171c0-.295.12-.539.246-.797.154-.313.326-.664.244-1.104.162.062.367.172.544.351-.112.138-.236.271-.305.354-.476.565-.659 1.238-.149 1.992h-.072c-.004-.003-.508-.183-.508-.796m1.682-2.493c.426.344.952.992.952 1.736 0 .673-.574 1.441-.714 1.542a1.329 1.329 0 01-.251-.752c0-.554.271-.879.271-.879s-.401.258-.46.771c-.028.25.026.515.197.86h-.244c-.065-.104-.534-.688-.143-1.351.065-.108.359-.533.395-.619.047-.105.042-.203.042-.203-.048.079-.133.174-.133.174-.084.092-.372.391-.462.5-.561.68-.015 1.438.012 1.499h-.228c-.25-.286-.334-.563-.308-.981.055-.94 1.187-1.057 1.074-2.297m1.566.797a2.774 2.774 0 00.129 1.373c.199.715-.341 1.047-.46 1.111l-.016-.006-.543.002c.339-.443.61-1.023.61-1.541a2.178 2.178 0 00-.047-.45l-.044-.151c.136-.159.265-.27.371-.338m.094 2.607c.289-.259.551-.707.37-1.338l-.008-.021a2.401 2.401 0 01-.041-1.494l.083-.26-.271.035c-.04.004-.356.055-.741.442-.32-.649-.931-1.132-1.567-1.45.233.742.265 1.016.072 1.333a1.98 1.98 0 00-.987-.483l-.306-.045.124.283c.196.454.042.768-.138 1.135-.132.27-.282.573-.282.951.001.494.252.809.489.982a.821.821 0 00-.272.613c0 .312.159.582.4.717a.982.982 0 00.471.562l.277 5.591a.744.744 0 00.072 1.47l.113 2.24a.6.6 0 00.602.6.592.592 0 00.602-.594l.101-2.248a.744.744 0 00.066-1.472l.248-5.576a.976.976 0 00.495-.58.825.825 0 00.028-1.393m-6.872 2.252l-3.083.002a.727.727 0 11-.002-1.455l3.083-.006c.055 0 .107.009.158.019l.003.008.008-.004a.728.728 0 01-.167 1.436m-.619.787l-1.879.001a.727.727 0 01-.668-.44c.028.002.056.004.083.004l3.084-.004c.036 0 .069 0 .104-.004-.116.256-.4.441-.724.443m-.228 8.084l-.895.002-.096-7.736 1.221-.002a.912.912 0 00.127-.008l-.357 7.744zm.829.948c0 .334-.27.604-.603.606l-1.792.002a.603.603 0 01-.002-1.207l1.792-.004a.61.61 0 01.605.603m-1.063 4.109a.459.459 0 01-.458.459.464.464 0 01-.462-.467l-.144-3.145h.284l.119 3.07c0 .228.104.271.104.271l-.053-3.346.757-.002-.147 3.16zm-1.168-12.791l.324 7.736h-.306l-.355-7.738c.029 0 .06.004.089.004l.248-.002zm-1.838-4.058c0-.424.169-.767.348-1.133.233-.478.473-.966.309-1.604.253.08.625.25.934.573-.075.095-.16.187-.249.284-.068.074-.138.148-.212.234-.105.104-1.238 1.299-.278 2.779-.04.004-.079.014-.118.023a1.208 1.208 0 01-.734-1.156m2.265-2.649c.106-.297.089-.639.044-.908.532.412 1.455 1.283 1.462 2.392.01 1.125-.723 1.996-1 2.283l-.049.001a1.845 1.845 0 01-.34-1.034c-.002-.769.373-1.22.373-1.22s-.555.359-.636 1.068c-.04.348.036.711.268 1.186h-.337c-.104-.16-.729-.96-.195-1.862.09-.151.496-.739.548-.858.064-.147.056-.285.056-.285-.066.111-.184.244-.184.244-.117.127-.515.541-.641.692-.761.923-.049 1.949.012 2.07l-.377.002c-1.058-1.382.058-2.474.107-2.521l.012-.013c.072-.082.141-.157.208-.229.271-.296.504-.549.669-1.008m2.396.166a3.753 3.753 0 00.152 2.019c.268.948-.37 1.438-.618 1.588a.797.797 0 00-.109-.006h-.845c.365-.442.888-1.257.881-2.287a2.45 2.45 0 00-.124-.753c.255-.302.491-.47.663-.561m-.055 3.733c.355-.3.809-.884.541-1.821l-.006-.02c-.005-.01-.41-1.014-.059-2.118l.082-.259-.269.033c-.023.004-.489.066-1.042.649-.532-1.108-1.672-1.797-1.736-1.832l-.418-.248.167.458c.067.186.212.751.071 1.141-.042.117-.09.221-.143.312-.595-.592-1.352-.697-1.385-.703l-.307-.042.124.284c.285.654.064 1.105-.19 1.627-.189.385-.385.783-.383 1.287 0 .693.369 1.126.696 1.346a1.069 1.069 0 00-.42.852c.001.425.247.789.602.966.061.358.298.655.619.801l.36 7.849a.953.953 0 00-.786.937.956.956 0 00.873.948l.144 3.154c0 .446.364.81.81.81a.808.808 0 00.808-.802l.146-3.162a.955.955 0 00.916-.953.956.956 0 00-.829-.942l.361-7.848a1.08 1.08 0 00.639-.806c.343-.183.575-.541.573-.955a1.088 1.088 0 00-.559-.943"/><path fill="#FFF" d="M15.02 23.874c-.09-.222.024-.435.062-.465 0 0-.434.077-.329.562.081.372.338.411.667.41l2.791-.004s.327.031.451-.279l-3.122.006c-.275 0-.44-.028-.52-.23m.693 10.556c-.069-.175.019-.342.049-.365 0 0-.342.061-.26.441.063.293.267.324.527.323l1.522-.003s.257.025.354-.219l-1.781.004c-.217 0-.347-.023-.411-.181"/><path fill="#FFF" d="M29.729 26.451c-2.034 4.961-5.927 11.75-12.947 16.029C9.751 38.221 5.838 31.439 3.793 26.482c-1.884-4.562-2.573-8.438-2.746-9.578.84-.471 1.677-.699 2.625-.7h.007c.665 0 1.602.122 2.139.278l.326.095c.273.079.557.163.844.243v.002c1.039.297 2.219.6 3.105.6h.006a13.146 13.146 0 004.285-.745c.496-.175 1.087-.364 1.721-.446l.574-.043h.033l.886.08a9.362 9.362 0 011.472.403c1.734.606 3.282.735 4.278.735h.009c.601-.002 1.381-.137 2.459-.428.45-.119.901-.254 1.333-.381l.483-.142c.533-.157 1.51-.284 2.176-.285h.005c.945 0 1.811.229 2.64.679-.166 1.118-.841 5.012-2.724 9.602M10.436 12.602a6.862 6.862 0 00-.449 1.711c-.794-.033-1.85-.304-2.794-.572L6.027 13.4c-.59-.17-1.58-.301-2.302-.301h-.009a7.247 7.247 0 00-3.037.687 37.33 37.33 0 01-.09-1.929l9.847.745zM.612 9.525l10.232 2.24a5.762 5.762 0 00-.251.481L.58 10.908c.002-.443.014-.908.032-1.383m.354-3.738l10.626 4.922a7.238 7.238 0 00-.562.74L.666 8.543c.059-.884.157-1.809.3-2.756m.279-1.594c.412.089 1.223.248 2.272.357l8.631 5.584a6.461 6.461 0 00-.337.325L1.143 4.749c.034-.185.064-.369.102-.556m4.593.48c1.11 0 2.155-.093 3.13-.276l4.355 4.879c-.33.19-.641.408-.933.65L5.2 4.665c.21.005.421.01.638.008m5.558-.937l2.887 5.076c-.195.073-.387.16-.573.25l-3.673-4.91c.477-.125.93-.266 1.359-.416m3.821-1.843l.879 6.496a6.68 6.68 0 00-1.407.289l-2.422-5.267a18.084 18.084 0 002.95-1.518M16.732.785c.216.18.434.352.653.516l-.391 7.068c-.082-.003-.164-.012-.246-.012h-.008c-.087 0-.17.009-.254.012l-.393-7.08c.282-.208.5-.385.639-.504m1.509 1.108a17.64 17.64 0 002.93 1.517l-2.419 5.259a6.566 6.566 0 00-1.39-.281l.879-6.495zm3.801 1.841a15.75 15.75 0 001.365.406l-3.676 4.914a5.997 5.997 0 00-.576-.25l2.887-5.07zm2.458.629c1.077.186 2.196.287 3.338.285.139 0 .269-.006.402-.01l-7.195 5.268a6.779 6.779 0 00-.924-.639L24.5 4.363zm5.408.177a17.537 17.537 0 002.312-.381c.04.187.07.372.105.558l-10.692 5.725a6.544 6.544 0 00-.34-.327l8.615-5.575zm2.597 1.219c.149.97.249 1.913.312 2.815L22.46 11.477a6.948 6.948 0 00-.602-.785l10.647-4.933zm.397 5.162l-10.008 1.337a7.067 7.067 0 00-.248-.472l10.223-2.239c.019.474.033.935.033 1.374m-7.117 3.254l-.076-.28c-.621.166-1.507.383-2.204.402a6.757 6.757 0 00-.453-1.689l9.844-.742c-.015.679-.044 1.3-.083 1.855a7.122 7.122 0 00-2.955-.654h-.005c-.635 0-1.683.115-2.337.306l-.449.132c-.438.13-.899.268-1.357.389l.075.281zm-9.014-1.092l-.002.044v-.044a5.598 5.598 0 00-.688.047c-.684.087-1.316.29-1.846.478a12.58 12.58 0 01-3.659.701 6.2 6.2 0 016.165-5.365h.008c3.1 0 5.73 2.317 6.167 5.349a12.576 12.576 0 01-3.608-.692 10.282 10.282 0 00-1.572-.431l-.003.021.002-.021a5.55 5.55 0 00-.964-.087m-6.63 1.819h.005c.694 0 1.664-.069 2.773-.316.481-.107.985-.245 1.51-.429.5-.177 1.096-.368 1.725-.448l.612-.041.876.077a9.288 9.288 0 011.473.405 13.134 13.134 0 004.276.735h.01c.602 0 1.36-.132 2.459-.428.462-.123.929-.26 1.372-.392l.447-.133c.532-.154 1.507-.281 2.174-.283h.005c1 0 2.044.261 2.905.705a42.5 42.5 0 01-.062.649 6.473 6.473 0 00-2.887-.683h-.007c-.641.001-1.69.115-2.339.307l-.48.141c-.427.127-.877.262-1.323.379-.657.177-1.607.395-2.324.408-.948 0-2.421-.123-4.08-.703a15.428 15.428 0 00-.705-.227 8.071 8.071 0 00-.869-.205 5.69 5.69 0 00-.965-.084c-.231 0-.455.016-.686.047a7.384 7.384 0 00-1.032.215c-.29.082-.565.172-.816.262a12.528 12.528 0 01-4.091.712h-.005c-.807 0-1.94-.294-2.945-.579l-1.166-.338c-.59-.172-1.576-.301-2.298-.301h-.015a6.446 6.446 0 00-2.877.681c-.02-.19-.042-.397-.061-.62a6.545 6.545 0 012.988-.732h.006c.666 0 1.604.121 2.141.277l1.167.34.08-.28-.08.28c1.096.315 2.231.602 3.109.602m15.6 1.795l-.077-.281c-1.027.277-1.761.404-2.309.407h-.008c-.951 0-2.429-.122-4.086-.704a9.766 9.766 0 00-1.573-.428 5.308 5.308 0 00-1.654-.041c-.689.088-1.32.291-1.845.478a12.567 12.567 0 01-4.091.711h-.006c-.814 0-1.945-.292-2.943-.579l-.081.282.079-.282c-.285-.08-.567-.164-.839-.242l-.328-.097c-.591-.172-1.579-.3-2.301-.3h-.008a5.706 5.706 0 00-2.719.667 22.478 22.478 0 01-.087-.622 5.882 5.882 0 012.804-.727h.013c.664 0 1.6.123 2.135.277l1.167.34.082-.281-.081.281c1.096.312 2.229.602 3.105.602h.007a13.099 13.099 0 004.283-.747c.501-.175 1.098-.367 1.724-.446l.571-.042h.035l.883.077a9.44 9.44 0 011.473.404c1.735.606 3.28.736 4.272.736h.015c.599 0 1.357-.131 2.461-.426.451-.122.904-.256 1.337-.384l.479-.142c.527-.154 1.502-.281 2.175-.282h.007a5.88 5.88 0 012.815.723c-.031.253-.06.454-.082.599a5.973 5.973 0 00-2.733-.642h-.006c-.635 0-1.684.116-2.339.306l-.485.144c-.426.127-.874.259-1.319.379l.078.282zm7.708-7.276l-.056-1.009a34.835 34.835 0 00-.336-2.909l-.113-.68c-.065-.36-.135-.722-.215-1.085l-.066-.305-.299.088c-.009 0-.493.14-1.306.274l-1.974.226a18.852 18.852 0 01-4.601-.256l-.692-.139c-.012-.003-.025-.004-.038-.006-.014-.004-.57-.122-1.415-.408l-.92-.343a16.894 16.894 0 01-3.09-1.622L17.425.59a12.023 12.023 0 01-.501-.417L16.722 0l-.192.184c-.006.004-.168.157-.475.398l-.924.666c-.754.499-1.803 1.1-3.11 1.628l-.919.343c-.444.152-.911.297-1.403.422a.427.427 0 00-.038.007l-.798.174a16.81 16.81 0 01-3.024.268c-.524 0-1.025-.02-1.493-.054l-1.977-.229c-.782-.125-1.264-.246-1.274-.248l-.292-.075-.066.295c-.062.291-.116.582-.17.871l-.152.882c-.152.979-.26 1.937-.324 2.851L.033 9.398c-.02.495-.031.972-.033 1.433l.007.983c.056 2.764.384 4.672.412 4.824.03.236.615 4.688 2.828 10.055 2.081 5.039 6.06 11.938 13.227 16.281l.311.188.31-.188c7.155-4.365 11.116-11.271 13.182-16.317 2.2-5.372 2.774-9.825 2.802-10.06.026-.152.347-2.037.401-4.774l.005-.978a37.236 37.236 0 00-.036-1.424"/><path fill="#fff" d="M39.666 5.43c0-.744-.176-1.093-.744-1.093h-1.006c-.131 0-.176-.044-.176-.198v-.504c0-.13.045-.174.219-.174.22 0 1.269.064 3.37.064 1.837 0 2.887-.064 3.15-.064.131 0 .174.044.174.154v.546c0 .131-.043.175-.174.175h-.919c-.656 0-1.049.393-1.072.852a55.857 55.857 0 00-.065 2.845v2.714c0 1.093.021 2.646.065 3.347.066 1.007.241 2.013.766 2.714.744 1.004 1.926 1.354 2.975 1.354 1.005 0 2.231-.396 2.931-1.049.833-.832 1.27-2.102 1.27-3.698V9.477a40.61 40.61 0 00-.241-4.18c-.066-.57-.416-.961-.897-.961h-.789c-.13 0-.174-.066-.174-.154v-.547c0-.13.044-.174.174-.174.22 0 1.226.064 2.67.064 1.356 0 2.056-.064 2.231-.064.197 0 .218.064.218.174v.504c0 .131-.021.198-.131.198h-.786c-.789 0-.876.611-.921.853-.042.263-.042 3.324-.042 3.61 0 .304-.044 4.112-.13 4.987-.132 1.792-.658 3.148-1.839 4.199-.918.832-2.319 1.355-3.981 1.355-1.05 0-2.318-.173-3.15-.523-1.269-.525-2.144-1.532-2.582-2.932-.306-.964-.393-2.408-.393-5.275l-.001-5.181zm14.57 8.706c.086 0 .131.046.131.175.044.7.219 1.531.832 2.496.656 1.047 1.794 1.573 2.888 1.573 1.181 0 2.843-.744 2.843-2.56 0-2.012-.917-2.67-3.237-3.543-.699-.262-2.144-.877-3.193-1.838-.744-.703-1.094-1.795-1.094-3.129 0-1.227.481-2.231 1.532-3.063.875-.742 1.837-1.049 3.106-1.049 1.444 0 2.319.349 2.756.524.218.088.35.043.459-.065l.284-.285a.4.4 0 01.307-.13c.131 0 .174.13.174.349 0 .351.351 3.412.351 3.634 0 .086-.044.129-.131.152l-.35.109c-.088.021-.176 0-.219-.133-.219-.611-.568-1.486-1.356-2.317-.569-.612-1.269-.919-2.275-.919-1.751 0-2.451 1.4-2.451 2.208 0 .745.088 1.401.612 1.969.57.57 1.794 1.095 2.67 1.356 1.268.395 2.318.832 3.149 1.705.7.746 1.094 1.664 1.094 3.131 0 2.668-1.75 4.854-4.637 4.854-1.794 0-2.845-.393-3.719-1.049-.262-.175-.394-.263-.525-.263s-.219.175-.35.394c-.131.22-.217.265-.394.265-.174 0-.263-.133-.263-.352.044-.264.35-3.809.394-4.068.022-.133.045-.175.131-.175l.481.044zm24.284 1.312c.065.065.085.13.042.218-1.312 1.883-3.412 3.676-6.518 3.676-2.8 0-4.375-.832-5.732-2.057-1.619-1.442-2.361-3.98-2.361-5.905 0-2.146.699-4.202 2.23-5.864 1.181-1.268 3.062-2.317 5.688-2.317 2.013 0 3.631.612 4.419 1.05.305.175.394.175.438 0l.174-.57c.044-.129.087-.129.349-.129.263 0 .308.042.308.35 0 .396.437 3.894.524 4.549.022.133 0 .199-.087.221l-.416.13c-.109.042-.175-.045-.24-.22a7.783 7.783 0 00-1.706-2.844c-.963-.92-2.101-1.619-3.808-1.619-3.499 0-4.943 3.15-4.943 6.3 0 1.354.394 3.937 2.013 5.688 1.444 1.53 2.712 1.707 3.763 1.707 2.405 0 4.309-1.203 5.229-2.539.108-.152.196-.217.263-.152l.371.327z"/><path fill="#FFF" d="M85.345 18.883c-1.487-.59-2.252-1.553-2.603-2.932-.263-.983-.35-2.45-.35-5.315V5.43c0-.765-.153-1.115-.832-1.115h-1.028c-.13 0-.153-.045-.153-.196v-.484c0-.13.023-.174.197-.174.219 0 1.292.064 2.997.064 1.707 0 2.757-.064 2.997-.064.175 0 .197.044.197.131v.57c0 .107-.022.152-.175.152H85.5c-.636 0-1.007.414-1.051.896-.022.198-.043 1.729-.043 2.847V9.5c0 1.158.087 3.938.109 4.637.021 1.006.196 2.035.7 2.778.809 1.183 2.209 1.576 3.478 1.576 1.248 0 2.516-.417 3.281-1.204.854-.919 1.139-2.23 1.139-3.85v-4.68c0-1.664-.043-2.933-.11-3.478-.065-.57-.415-.965-.984-.965h-.962c-.131 0-.154-.064-.154-.174v-.524c0-.11.022-.154.154-.154.219 0 1.224.065 2.69.065 1.509 0 2.209-.065 2.407-.065.196 0 .218.088.218.154v.479c0 .131-.022.219-.132.219h-.896c-.81 0-.875.613-.94.875-.045.219-.045 3.324-.045 3.631 0 .306-.043 4.136-.109 4.988-.13 1.793-.611 3.172-1.836 4.221-.875.811-2.209 1.312-4.114 1.312-1.138.001-2.233-.152-2.955-.458m18.794-1.05c0 .351.195.46.479.46h.7c.197 0 .24.064.24.196v.351c0 .152-.043.241-.177.241-.151 0-.827-.065-2.075-.065-1.115 0-1.815.065-1.97.065-.133 0-.177-.065-.177-.241v-.351c0-.154.066-.196.283-.196h.636c.241 0 .416-.109.438-.503.021-.569.043-1.271.043-1.837v-2.889c0-.875 0-1.508-.636-1.967-.524-.395-1.05-.395-1.596-.395-.351 0-1.116.152-1.772.854-.437.481-.502 1.07-.502 1.485v4.528c0 .592.066.724.524.724h.546c.176 0 .219.065.219.217v.373c0 .132-.043.198-.154.198-.152 0-.743-.066-1.903-.066-1.115 0-1.816.066-1.946.066-.11 0-.154-.066-.154-.198v-.393c0-.131.044-.196.218-.196h.635c.284 0 .438-.067.438-.438v-5.119c0-.656-.349-1.027-.896-1.291l-.176-.088c-.152-.063-.174-.129-.174-.195v-.11c0-.108.088-.174.197-.219l1.881-1.049c.175-.087.306-.153.394-.153.109 0 .153.087.174.264l.154 1.334h.043c.635-.789 1.903-1.599 2.997-1.599.654 0 1.334.131 1.859.481.654.438 1.202 1.531 1.202 2.078v5.644h.008zm3.632-5.187c0-.742-.133-1.137-1.229-1.311-.15-.021-.195-.064-.195-.154v-.197c0-.066.045-.108.152-.152.7-.262 1.529-.613 2.361-1.07.178-.088.283-.133.416-.133.109 0 .131.109.109.264-.043.371-.043 1.75-.043 3.564v2.385c0 .854 0 1.641.021 1.879.042.418.105.571.349.571h1.009c.176 0 .217.065.217.196v.373c0 .154-.041.219-.195.219-.176 0-1.182-.064-2.102-.064-1.27 0-2.121.064-2.359.064-.11 0-.176-.045-.176-.176v-.438c0-.131.063-.175.218-.175h1.071c.242 0 .328-.088.353-.439.021-.656.021-1.332.021-1.988v-3.217h.002zm-.985-6.669c0-.547.461-1.139 1.334-1.139.767 0 1.139.59 1.139 1.072 0 .568-.396 1.204-1.271 1.204-.481 0-1.202-.437-1.202-1.137m8.773 11.025h.064c.352-.854 1.881-4.595 2.102-5.447.152-.591 0-.94-.393-.94h-.439c-.063 0-.086-.11-.086-.218v-.395c0-.132.043-.176.131-.176.307 0 .787.064 1.75.064.854 0 1.379-.064 1.574-.064.176 0 .196.021.196.195v.373c0 .152 0 .219-.108.219h-.416c-.262 0-.479.043-.679.242-.327.305-1.422 2.69-1.751 3.5-.262.654-1.881 4.33-1.968 4.483-.175.306-.283.502-.524.502-.217 0-.35-.196-.46-.459-.043-.11-1.641-4.266-1.706-4.44-.063-.174-.962-2.67-1.115-3.02-.283-.634-.504-.809-.896-.809h-.438c-.107 0-.133-.088-.133-.219V10c0-.154.047-.176.242-.176.24 0 .612.064 1.837.064 1.16 0 1.729-.064 1.97-.064.174 0 .219.043.219.176v.393c0 .131-.021.219-.151.219h-.438c-.221 0-.395.132-.395.414 0 .395.57 2.211.7 2.582.13.417 1.07 2.934 1.311 3.394m5.929-3.807c-.045.197-.066.548-.066 1.049 0 2.146 1.357 3.764 3.107 3.764 1.334 0 2.272-.766 2.646-1.486.042-.088.132-.131.195-.11l.282.153c.068.021.109.086 0 .328-.393.875-1.53 2.383-3.479 2.383-1.246 0-2.624-.371-3.433-1.553-.767-1.115-.964-1.924-.964-3.455 0-.854.22-2.318 1.377-3.478.941-.964 2.035-1.16 3.13-1.16 2.516 0 3.216 2.364 3.216 3.218 0 .303-.264.348-.611.348h-5.402.002zm3.478-.655c.415 0 .591-.108.591-.308 0-.502-.263-1.945-1.684-1.945-.965 0-1.882.632-2.298 2.253h3.391zm4.585.655c0-1.116-.174-1.334-.787-1.662l-.418-.219c-.129-.043-.174-.065-.174-.152v-.133c0-.086.045-.129.174-.195l2.168-1.116a.664.664 0 01.305-.087c.134 0 .154.133.154.264l.108 1.508h.088c.656-1.006 1.685-1.902 2.626-1.902.745 0 1.114.458 1.114.963 0 .635-.524 1.071-.919 1.071-.24 0-.461-.087-.633-.177-.176-.107-.438-.174-.725-.174-.351 0-.92.219-1.29.918-.133.241-.22.635-.22.703v4.592c0 .678.154.897.611.897h1.027c.133 0 .153.065.153.196v.394c0 .134-.021.198-.108.198-.131 0-1.139-.064-2.318-.064-1.355 0-2.273.064-2.405.064-.087 0-.131-.045-.131-.219v-.373c0-.154.044-.196.237-.196h.854c.329 0 .479-.132.479-.417.021-.721.021-1.486.021-2.625v-2.057h.009zm5.894 5.448c-.108-.064-.108-.197-.131-.306l-.371-2.079c-.021-.109.043-.152.131-.176l.283-.062c.088-.022.151.021.197.131l.547 1.072c.438.809.741 1.355 1.901 1.355.767 0 1.729-.459 1.729-1.488 0-.984-.48-1.553-2.121-2.012-1.291-.371-2.58-1.051-2.58-2.78 0-1.509 1.421-2.668 3.062-2.668 1.05 0 1.616.263 2.013.459.328.153.371.263.394.394l.329 1.531c0 .088-.045.154-.153.197l-.265.086c-.088.023-.131 0-.195-.109l-.744-1.004c-.262-.416-.678-.854-1.529-.854-.832 0-1.686.503-1.686 1.443 0 1.269 1.027 1.511 2.1 1.815 1.6.459 2.604 1.117 2.627 2.802-.021 1.771-1.467 2.885-3.324 2.885-1.074 0-1.95-.435-2.214-.632m7.723-5.997c0-.74-.131-1.136-1.225-1.311-.152-.021-.197-.064-.197-.154v-.197c0-.066.045-.108.154-.152a18.23 18.23 0 002.363-1.07c.174-.088.28-.133.412-.133.109 0 .133.109.109.264-.042.371-.042 1.75-.042 3.564v2.385c0 .854 0 1.641.021 1.879.043.418.108.571.35.571h1.009c.174 0 .216.065.216.196v.373c0 .154-.042.219-.193.219-.174 0-1.185-.064-2.102-.064-1.27 0-2.122.064-2.359.064-.111 0-.179-.045-.179-.176v-.438c0-.131.065-.175.22-.175h1.07c.241 0 .329-.088.352-.439.021-.656.021-1.332.021-1.988v-3.218zm-.982-6.669c0-.547.459-1.139 1.334-1.139.767 0 1.138.59 1.138 1.072 0 .568-.394 1.204-1.271 1.204-.483 0-1.201-.437-1.201-1.137m6.978 10.304c0 1.64.743 1.924 1.137 1.924.504 0 1.137-.087 1.443-.284.109-.065.197-.044.263.042l.109.199c.063.087.022.175-.044.238-.219.221-1.114.875-2.43.875-1.07 0-2.121-1.026-2.121-1.857 0-.896.064-2.822.064-3.129v-.48c0-.395.021-1.859.044-2.779h-1.335c-.195 0-.327-.086-.327-.262s.132-.242.394-.394c.524-.308 2.212-2.013 2.496-2.756.062-.175.174-.218.307-.218.175 0 .219.152.219.326l-.111 2.168h3.043c.131 0 .195.109.151.195l-.218.768c-.023.107-.066.172-.198.172h-2.821a72.897 72.897 0 00-.062 3.064l-.003 2.188zm3.719 7.569c0-.461.482-.854 1.008-.854.416 0 .81.197 1.008.24a.53.53 0 00.457-.129c.328-.396 1.443-2.892 1.75-3.743-.106-.548-2.428-7.371-2.604-7.832-.261-.548-.459-.921-1.027-.921h-.57c-.15 0-.174-.063-.174-.195v-.437c0-.086.021-.152.174-.152.199 0 .724.066 2.017.066 1.115 0 1.792-.066 2.033-.066.174 0 .194.066.194.152v.459c0 .109-.021.172-.131.172h-.416c-.238 0-.328.156-.283.484.065.481 1.555 5.293 1.795 5.774h.088c.22-.349 2.122-4.876 2.253-5.425.133-.549-.044-.834-.372-.834h-.35c-.133 0-.153-.062-.153-.172v-.436c0-.109.021-.176.131-.176.284 0 .744.066 1.795.066.591 0 1.095-.066 1.333-.066.133 0 .133.088.133.176v.415c0 .132 0 .194-.109.194h-.35a.989.989 0 00-.767.397c-.479.591-1.927 3.914-3.437 7.351-1.072 2.428-1.925 4.463-2.316 5.184-.309.568-.7 1.423-1.859 1.423-.835 0-1.251-.459-1.251-1.115m14.54-6.082c-1.006-1.203-1.202-2.013-1.202-3.565 0-1.117.59-2.517 1.881-3.522 1.137-.875 2.209-1.05 2.933-1.05 1.202 0 2.405.611 3.062 1.269.983 1.008 1.486 2.144 1.486 3.565 0 2.384-2.145 4.812-4.835 4.812-1.05-.002-2.405-.416-3.325-1.509m6.322-3.522c0-2.43-1.772-3.959-2.888-3.959-.592 0-1.159.13-1.687.699-.854.875-1.157 1.771-1.157 3.435 0 1.226.133 2.056.832 3.063.502.721 1.137 1.137 2.162 1.137 1.667 0 2.738-2.035 2.738-4.375m4.069-3.305h-1.513c-.108 0-.149-.045-.108-.24l.09-.657c.021-.129.089-.151.263-.151h1.269v-.416c0-2.166.611-3.586 1.469-4.549 1.158-1.269 2.361-1.729 3.586-1.729 1.027 0 1.99.393 1.99 1.224 0 .525-.567.942-.92.942-.219 0-.438-.046-.61-.132-.196-.109-.438-.395-.524-.504-.283-.35-.591-.502-1.007-.502-.567 0-1.157.152-1.641.767-.81 1.026-.767 2.931-.767 4.462v.438h2.646c.152 0 .175.129.152.219l-.108.722c-.022.086-.108.11-.285.11h-2.405v1.947c0 2.58 0 4.594.021 4.832.042.373.107.57.568.57h1.246c.196 0 .239.042.239.175v.351c0 .174-.043.263-.151.263-.131 0-.939-.065-2.625-.065-1.203 0-2.317.065-2.496.065-.129 0-.174-.045-.174-.153v-.482c0-.11.045-.152.219-.152h1.051c.417 0 .504-.264.525-.766v-6.589zM40.917 38.734c-.262-.196-.394-.264-.502-.264-.131 0-.219.15-.35.369-.131.243-.241.266-.395.266-.13 0-.24-.11-.197-.352.087-.547.307-3.324.372-3.958.021-.132.066-.132.153-.132l.328.021c.088 0 .13.045.13.176.022.699.066 1.424.788 2.537.657 1.024 1.861 1.619 3.062 1.619 1.313 0 2.976-.812 2.976-2.776 0-2.255-1.618-3.086-3.368-3.697-.678-.241-2.253-.789-3.194-1.772-.722-.723-1.094-1.75-1.094-3.192 0-1.097.678-2.165 1.355-2.802.788-.743 1.882-1.049 3.063-1.049 1.247 0 2.209.369 2.581.545.198.11.307.091.417-.021l.284-.262c.109-.091.174-.132.284-.132.109 0 .173.175.173.369 0 .769.286 2.998.309 3.481 0 .106-.023.151-.11.174l-.263.064c-.065.021-.109 0-.131-.064-.176-.635-.459-1.487-1.356-2.428-.59-.638-1.356-.94-2.385-.94-1.947 0-2.647 1.444-2.647 2.56 0 .61.131 1.334.678 1.901.635.635 1.86 1.117 2.494 1.313 1.509.481 2.734.853 3.521 1.813.569.679.963 1.533.963 2.976 0 2.583-1.575 4.793-4.463 4.793-1.529.003-2.601-.457-3.476-1.136m10.078-.437c-1.007-1.201-1.204-2.011-1.204-3.564 0-1.115.591-2.516 1.881-3.521 1.138-.877 2.209-1.051 2.932-1.051 1.204 0 2.407.612 3.063 1.271.985 1.004 1.487 2.144 1.487 3.563 0 2.385-2.143 4.812-4.835 4.812-1.05 0-2.406-.416-3.324-1.51m6.321-3.522c0-2.43-1.772-3.961-2.887-3.961-.591 0-1.16.134-1.685.701-.853.875-1.159 1.771-1.159 3.434 0 1.226.131 2.058.831 3.062.503.724 1.138 1.138 2.166 1.138 1.662-.001 2.734-2.034 2.734-4.374m10.881.329c0 1.051 0 2.121.044 2.582.065.679.306.767.569.767.131 0 .459 0 .722-.063.175-.046.242 0 .263.086l.066.284c.021.132-.022.179-.11.197l-2.297.767c-.131.043-.262.088-.437.088-.088 0-.174-.045-.197-.266l-.175-1.27H66.6c-.612.854-1.882 1.531-2.977 1.531-.611 0-1.333-.063-2.056-1.008-.897-1.156-.852-1.88-.852-4.285v-2.539c-.022-.609-.328-.764-.832-.83-.373-.021-.482-.045-.482-.152v-.396c0-.129.044-.174.241-.174h1.947c.131 0 .219-.021.307-.045.087 0 .174-.021.24-.021.153 0 .263.11.24.265a32.01 32.01 0 00-.087 2.516v1.554c0 .875-.219 2.274.481 3.283.546.785 1.16.827 1.75.827s1.466-.567 1.881-1.092c.089-.11.219-.396.219-.592v-5.205c-.043-.614-.394-.724-.941-.769-.372 0-.481-.043-.481-.151v-.373c0-.179.044-.197.262-.197h2.033c.154 0 .264-.021.373-.045.109 0 .197-.021.263-.021.132 0 .219.109.197.219-.022.197-.131.766-.131 2.91v1.619h.002v-.001zm4.799 1.707c0 1.642.744 1.924 1.138 1.924.503 0 1.137-.088 1.443-.282.11-.063.196-.044.264.043l.109.194c.065.088.021.178-.044.24-.218.221-1.115.877-2.428.877-1.073 0-2.123-1.029-2.123-1.858 0-.896.065-2.821.065-3.13v-.48c0-.395.022-1.855.045-2.775H70.13c-.197 0-.327-.088-.327-.265 0-.176.13-.237.394-.396.524-.307 2.208-2.01 2.494-2.756.065-.176.175-.217.306-.217.174 0 .219.152.219.326l-.11 2.166h3.041c.132 0 .197.109.154.197l-.219.766c-.022.108-.065.174-.198.174h-2.822a74.58 74.58 0 00-.064 3.062v2.189h-.002v.001zm5.017-9.188c0-1.336-.264-1.576-1.049-1.84l-.373-.131c-.131-.045-.153-.065-.153-.131v-.197c0-.088.066-.107.263-.217l2.275-1.205c.175-.088.329-.174.503-.174.131 0 .217.174.174.545s-.065 4.812-.065 5.908v1.396h.108c.766-.917 2.035-1.42 2.999-1.42.918 0 1.553.279 2.165.875.985.918.941 2.033.941 3.215v1.246c0 1.229.044 2.582.044 2.998 0 .262.35.328.81.328h.372c.175 0 .24.043.24.195v.328c0 .174-.044.262-.174.262-.154 0-.854-.062-2.101-.062-1.072 0-1.858.062-2.057.062-.152 0-.196-.062-.196-.238v-.371c0-.109.022-.176.153-.176h.502c.372 0 .81-.047.832-.416.022-.309 0-1.467 0-2.164v-1.772c0-1.226-.087-2.1-.723-2.69-.437-.414-.897-.611-1.442-.611-.635 0-1.423.219-2.035.917-.198.241-.438.681-.438 1.073v4.769c0 .7.065.897.481.897h.656c.153 0 .241.043.241.176v.371c0 .152-.043.24-.175.24-.175 0-1.072-.064-2.079-.064-1.094-.002-1.924.064-2.122.064-.087 0-.153-.066-.153-.219v-.395c0-.154.088-.176.329-.176h.459c.35 0 .678-.09.723-.352.065-.416.065-2.822.065-4.246v-6.598zm11.134 6.102c-.044.198-.066.547-.066 1.051 0 2.146 1.356 3.765 3.107 3.765 1.333 0 2.273-.767 2.646-1.485.044-.09.132-.134.197-.109l.284.152c.067.021.11.088 0 .325-.393.877-1.532 2.388-3.478 2.388-1.247 0-2.624-.371-3.435-1.555-.766-1.115-.961-1.926-.961-3.456 0-.854.219-2.317 1.378-3.479.94-.963 2.034-1.157 3.128-1.157 2.515 0 3.216 2.36 3.216 3.215 0 .308-.263.351-.612.351h-5.404v-.006zm3.479-.657c.415 0 .59-.109.59-.308 0-.503-.263-1.946-1.685-1.946-.962 0-1.881.635-2.297 2.254h3.392zm4.74.657c0-1.115-.175-1.334-.789-1.662l-.416-.22c-.131-.044-.175-.062-.175-.153v-.131c0-.088.043-.129.175-.193l2.166-1.116a.668.668 0 01.306-.088c.132 0 .154.132.154.262l.109 1.513h.087c.656-1.01 1.686-1.904 2.626-1.904.742 0 1.115.459 1.115.964 0 .632-.523 1.071-.92 1.071-.238 0-.457-.088-.634-.176a1.436 1.436 0 00-.722-.177c-.352 0-.921.222-1.291.919a2.42 2.42 0 00-.22.699v4.598c0 .678.153.896.613.896h1.028c.131 0 .151.065.151.196v.395c0 .133-.021.197-.106.197-.131 0-1.139-.064-2.32-.064-1.356 0-2.275.064-2.406.064-.087 0-.132-.045-.132-.219v-.373c0-.152.045-.196.242-.196h.853c.329 0 .482-.132.482-.414.021-.722.021-1.488.021-2.627v-2.058h.002v-.003zm14.714 4.636c0 .353.195.461.48.461h.698c.198 0 .24.063.24.195v.352c0 .152-.042.24-.174.24-.154 0-.832-.064-2.078-.064-1.116 0-1.813.064-1.97.064-.131 0-.176-.064-.176-.24v-.352c0-.152.064-.195.283-.195h.635c.242 0 .416-.108.438-.504.021-.568.046-1.27.046-1.836V33.59c0-.874 0-1.509-.635-1.97-.523-.393-1.053-.393-1.598-.393-.354 0-1.115.152-1.771.854-.438.48-.505 1.072-.505 1.488v4.525c0 .59.064.725.523.725h.547c.178 0 .221.064.221.22v.37c0 .133-.043.195-.153.195-.149 0-.741-.062-1.901-.062-1.114 0-1.813.062-1.946.062-.109 0-.152-.062-.152-.195v-.395c0-.131.043-.195.218-.195h.635c.285 0 .438-.066.438-.438v-5.116c0-.658-.352-1.029-.896-1.293l-.176-.089c-.151-.063-.176-.131-.176-.194v-.107c0-.111.088-.176.197-.219l1.881-1.053c.176-.088.309-.151.396-.151.106 0 .15.088.175.262l.151 1.335h.043c.637-.789 1.901-1.597 3-1.597.653 0 1.332.132 1.856.481.656.438 1.203 1.527 1.203 2.076l.003 5.645zm8.379-.502c-1.576-1.486-2.34-4.026-2.34-6.125 0-2.033.654-4.135 2.229-5.795 1.117-1.187 3.086-2.211 5.471-2.211 1.99 0 3.633.742 4.421 1.201.282.178.393.152.438 0l.174-.634c.045-.134.088-.134.282-.134.198 0 .241.044.241.354 0 .414.438 3.631.547 4.241.021.11 0 .196-.087.222l-.328.086c-.108.021-.151 0-.219-.174-.308-.725-.788-1.773-1.707-2.717-.918-.938-2.077-1.682-3.808-1.683-3.916 0-5.488 3.479-5.469 6.673 0 1.268.396 3.74 2.1 5.622 1.488 1.662 2.734 1.835 4.199 1.835 2.477 0 4.398-1.354 5.404-2.776.065-.108.109-.13.174-.065l.287.221c.064.045.109.088.044.197-1.312 1.902-3.434 3.676-6.52 3.676-2.581 0-4.221-.811-5.533-2.014m19.107-.918c0 1.246.261 1.639.654 1.639.35 0 .655-.173.766-.326.089-.111.133-.154.22-.088l.219.175c.067.066.109.177-.022.394-.174.328-.59 1.072-1.704 1.072-.787 0-1.356-.57-1.554-1.466h-.043c-.461.548-1.183 1.007-2.166 1.333-.416.133-.812.133-1.289.133-.527 0-1.313-.438-1.313-1.814 0-1.008.46-1.883 2.188-2.646.984-.438 2.121-.963 2.473-1.268v-1.401c-.044-.37-.064-.938-.307-1.224-.24-.285-.68-.484-1.312-.484-.438 0-1.115.178-1.42.465-.307.28-.109.609-.109 1.002 0 .768-.265 1.25-1.16 1.25-.351 0-.522-.197-.522-.701 0-.699.61-1.529 1.509-2.059.918-.547 1.686-.764 2.668-.764 1.028 0 1.442.307 1.752.59.458.461.479.962.479 1.555v4.637h-.004v-.004zm-1.597-2.209c-.787.591-2.932 1.025-2.932 2.842 0 .811.48 1.203 1.139 1.203.633 0 1.793-.766 1.793-1.356v-2.689zm7.113-1.707c0 1.136 0 4.438.021 5.117.021.373.107.68.567.68h.983c.197 0 .24.063.24.195v.373c0 .129-.043.219-.131.219-.154 0-1.117-.064-2.473-.064-1.398 0-2.273.064-2.473.064-.108 0-.152-.09-.152-.219v-.373c0-.152.044-.195.283-.195H143c.243 0 .461-.153.482-.549.021-.678.021-4.44.021-5.707v-1.379c0-1.556-.021-3.543-.065-4.113-.043-.744-.393-1.092-1.092-1.311l-.438-.156c-.108-.041-.134-.062-.134-.108v-.175c0-.064.065-.107.199-.153.767-.351 1.748-.743 2.559-1.269.195-.131.328-.176.461-.176.152 0 .195.109.176.395a768.444 768.444 0 00-.089 6.957v1.947h.002zm3.98.155c0-.744-.131-1.139-1.227-1.312-.152-.021-.195-.062-.195-.153v-.195c0-.066.043-.109.151-.152a18.073 18.073 0 002.362-1.072c.175-.088.283-.131.414-.131.111 0 .135.107.111.261-.045.372-.045 1.751-.045 3.567v2.384c0 .853 0 1.64.021 1.88.045.417.107.569.35.569h1.008c.174 0 .217.065.217.196v.373c0 .152-.043.219-.193.219-.176 0-1.184-.064-2.102-.064-1.27 0-2.123.064-2.361.064-.108 0-.178-.045-.178-.174V39c0-.131.067-.175.222-.175h1.069c.24 0 .328-.087.351-.437.021-.658.021-1.334.021-1.992v-3.215h.004v-.001zm-.984-6.674c0-.547.46-1.137 1.334-1.137.766 0 1.138.59 1.138 1.07 0 .568-.394 1.205-1.269 1.205-.48.001-1.203-.438-1.203-1.138m6.508 4.965h-1.509c-.108 0-.153-.043-.108-.238l.088-.656c.021-.135.086-.152.262-.152h1.27v-.416c0-2.165.609-3.587 1.467-4.549 1.158-1.271 2.362-1.729 3.588-1.729 1.026 0 1.99.394 1.99 1.224 0 .526-.568.942-.919.942-.22 0-.438-.045-.612-.133-.197-.109-.438-.395-.524-.503-.284-.351-.589-.504-1.007-.504-.567 0-1.158.153-1.643.769-.809 1.026-.766 2.931-.766 4.461v.438h2.646c.152 0 .176.133.152.221l-.107.723c-.021.088-.108.107-.287.107h-2.404v1.946c0 2.581 0 4.597.021 4.835.045.371.109.568.57.568h1.245c.196 0 .239.043.239.174v.352c0 .176-.043.264-.151.264-.133 0-.94-.064-2.625-.064-1.204 0-2.319.064-2.493.064-.133 0-.178-.045-.178-.152v-.482c0-.107.045-.15.221-.15h1.051c.414 0 .502-.264.523-.768v-6.592z"/><path fill="#FFF" d="M159.777 38.297c-1.008-1.201-1.204-2.011-1.204-3.564 0-1.115.591-2.516 1.882-3.521 1.138-.877 2.211-1.051 2.932-1.051 1.203 0 2.405.612 3.062 1.271.984 1.004 1.486 2.144 1.486 3.563 0 2.385-2.146 4.812-4.834 4.812-1.049 0-2.406-.416-3.324-1.51m6.323-3.522c0-2.43-1.771-3.961-2.889-3.961-.591 0-1.159.134-1.684.701-.854.875-1.16 1.771-1.16 3.434 0 1.226.131 2.058.833 3.062.502.724 1.137 1.138 2.163 1.138 1.664-.001 2.737-2.034 2.737-4.374m3.582-1.05c0-1.115-.175-1.334-.787-1.662l-.414-.22c-.133-.044-.176-.062-.176-.153v-.129c0-.09.043-.131.176-.195l2.164-1.116a.669.669 0 01.308-.088c.131 0 .151.132.151.262l.109 1.513h.087c.656-1.01 1.687-1.904 2.626-1.904.744 0 1.115.459 1.115.964 0 .632-.525 1.071-.919 1.071-.239 0-.46-.088-.636-.176-.174-.107-.438-.177-.721-.177-.353 0-.918.222-1.289.919a2.455 2.455 0 00-.223.699v4.598c0 .678.153.896.613.896h1.027c.131 0 .151.065.151.196v.395c0 .133-.021.197-.108.197-.131 0-1.139-.064-2.318-.064-1.354 0-2.271.064-2.406.064-.087 0-.131-.045-.131-.219v-.373c0-.152.044-.196.24-.196h.854c.328 0 .481-.132.481-.414.021-.722.021-1.488.021-2.627v-2.058h.004v-.003zm14.677 4.636c0 .353.197.461.48.461h.7c.194 0 .241.063.241.195v.352c0 .152-.047.24-.18.24-.148 0-.828-.064-2.076-.064-1.114 0-1.814.064-1.969.064-.132 0-.176-.064-.176-.24v-.352c0-.152.064-.195.285-.195h.634c.24 0 .416-.108.438-.504.021-.568.043-1.27.043-1.836V33.59c0-.874 0-1.509-.635-1.97-.525-.393-1.051-.393-1.6-.393-.35 0-1.111.152-1.771.854-.438.48-.504 1.072-.504 1.488v4.525c0 .59.066.725.525.725h.545c.176 0 .221.064.221.22v.37c0 .133-.045.195-.152.195-.154 0-.744-.062-1.904-.062-1.113 0-1.812.062-1.943.062-.109 0-.153-.062-.153-.195v-.395c0-.131.044-.195.219-.195h.634c.284 0 .438-.066.438-.438v-5.116c0-.658-.351-1.029-.897-1.293l-.175-.089c-.153-.063-.175-.131-.175-.194v-.107c0-.111.088-.176.197-.219l1.879-1.051c.177-.09.308-.153.396-.153.109 0 .153.088.173.262l.156 1.335h.043c.635-.789 1.902-1.597 2.997-1.597.655 0 1.335.132 1.86.481.654.438 1.201 1.527 1.201 2.076v5.645h.005zm3.633-5.181c0-.744-.131-1.139-1.227-1.312-.15-.021-.195-.062-.195-.153v-.195c0-.066.045-.109.152-.152a18.254 18.254 0 002.362-1.072c.174-.088.284-.131.416-.131.106 0 .13.107.106.261-.043.372-.043 1.751-.043 3.567v2.384c0 .853 0 1.64.021 1.88.043.417.107.569.35.569h1.006c.179 0 .221.065.221.196v.373c0 .152-.042.219-.195.219-.177 0-1.183-.064-2.101-.064-1.271 0-2.122.064-2.363.064-.106 0-.174-.045-.174-.174V39c0-.131.063-.175.219-.175h1.07c.239 0 .327-.087.353-.437.021-.658.021-1.334.021-1.992l.001-3.216zm-.983-6.674c0-.547.46-1.137 1.335-1.137.766 0 1.139.59 1.139 1.07 0 .568-.396 1.205-1.271 1.205-.482.001-1.203-.438-1.203-1.138m11.069 10.435c0 1.246.263 1.639.654 1.639.353 0 .658-.173.768-.326.087-.111.132-.154.219-.088l.219.175c.063.066.11.177-.021.394-.175.328-.589 1.072-1.706 1.072-.786 0-1.354-.57-1.554-1.466h-.046c-.457.548-1.18 1.007-2.163 1.333-.415.133-.812.133-1.29.133-.525 0-1.312-.438-1.312-1.814 0-1.008.461-1.883 2.188-2.646.982-.438 2.121-.963 2.472-1.268v-1.401c-.043-.37-.065-.938-.31-1.224-.238-.285-.676-.484-1.311-.484-.438 0-1.115.178-1.423.465-.306.28-.108.609-.108 1.002 0 .768-.263 1.25-1.16 1.25-.35 0-.523-.197-.523-.701 0-.699.612-1.529 1.512-2.059.918-.547 1.684-.764 2.67-.764 1.026 0 1.44.307 1.748.59.461.461.48.962.48 1.555v3.348l-.003 1.285zm-1.598-2.209c-.787.591-2.934 1.025-2.934 2.842 0 .811.48 1.203 1.141 1.203.635 0 1.793-.766 1.793-1.356v-2.689z"/></svg>