<svg version="1.1" id="Layer_1" xmlns="http://www.w3.org/2000/svg" x="0" y="0" viewBox="0 0 200 150" xml:space="preserve"><style>.st0{fill:#991b1e}.st1{fill:#212121}</style><path class="st0" d="M64.8 96.1c0-2.6-.6-3.8-2.6-3.8h-3.5c-.5 0-.6-.2-.6-.7v-1.8c0-.5.2-.6.8-.6.8 0 4.4.2 11.7.2 6.4 0 10-.2 10.9-.2.5 0 .6.2.6.5v1.9c0 .5-.2.6-.6.6h-3.2c-2.3 0-3.6 1.4-3.7 3-.1.9-.2 5.5-.2 9.9v9.4c0 3.8.1 9.2.2 11.6.2 3.5.8 7 2.7 9.4 2.6 3.5 6.7 4.7 10.3 4.7 3.5 0 7.8-1.4 10.2-3.6 2.9-2.9 4.4-7.3 4.4-12.8v-13.7c0-6.1-.6-12.8-.8-14.5-.2-2-1.4-3.3-3.1-3.3h-2.7c-.5 0-.6-.2-.6-.5v-1.9c0-.5.2-.6.6-.6.8 0 4.3.2 9.3.2 4.7 0 7.1-.2 7.8-.2.7 0 .8.2.8.6v1.8c0 .5-.1.7-.5.7h-2.7c-2.7 0-3 2.1-3.2 3-.2.9-.2 11.6-.2 12.5 0 1.1-.2 14.3-.5 17.3-.5 6.2-2.3 10.9-6.4 14.6-3.2 2.9-8.1 4.7-13.8 4.7-3.6 0-8.1-.6-10.9-1.8-4.4-1.8-7.4-5.3-9-10.2-1.1-3.4-1.4-8.4-1.4-18.3l-.1-18.1zm50.6 30.2c.3 0 .5.2.5.6.2 2.4.8 5.3 2.9 8.7 2.3 3.6 6.2 5.5 10 5.5 4.1 0 9.9-2.6 9.9-8.9 0-7-3.2-9.3-11.2-12.3-2.4-.9-7.4-3-11.1-6.4-2.6-2.4-3.8-6.2-3.8-10.9 0-4.3 1.7-7.8 5.3-10.6 3-2.6 6.4-3.6 10.8-3.6 5 0 8.1 1.2 9.6 1.8.8.3 1.2.1 1.6-.2l1-1c.3-.3.6-.5 1.1-.5.5 0 .6.5.6 1.2 0 1.2 1.2 11.9 1.2 12.6 0 .3-.1.5-.5.5l-1.2.4c-.3.1-.6 0-.8-.5-.8-2.1-2-5.2-4.7-8.1-2-2.1-4.4-3.2-7.9-3.2-6.1 0-8.5 4.9-8.5 7.7 0 2.6.3 4.9 2.1 6.8 2 2 6.2 3.8 9.3 4.7 4.4 1.4 8.1 2.9 10.9 5.9 2.4 2.6 3.8 5.8 3.8 10.9 0 9.3-6.1 16.9-16.1 16.9-6.2 0-9.9-1.4-12.9-3.6-.9-.6-1.4-.9-1.8-.9s-.8.6-1.2 1.4c-.5.8-.8.9-1.4.9s-.9-.5-.9-1.2c.2-.9 1.2-13.2 1.4-14.1.1-.5.2-.6.5-.6l1.5.1zm84.4 4.6c.2.2.3.5.1.8-4.6 6.5-11.9 12.8-22.6 12.8-9.7 0-15.2-2.9-19.9-7.1-5.6-5-8.2-13.8-8.2-20.5 0-7.4 2.4-14.6 7.8-20.4 4.1-4.4 10.6-8.1 19.8-8.1 7 0 12.6 2.1 15.3 3.6 1.1.6 1.4.6 1.5 0l.6-2c.2-.5.3-.5 1.2-.5.9 0 1.1.1 1.1 1.2 0 1.4 1.5 13.5 1.8 15.8.1.5 0 .7-.3.8l-1.4.5c-.4.1-.6-.2-.8-.8-.9-2.7-2.7-6.5-5.9-9.9-3.3-3.2-7.3-5.6-13.2-5.6-12.2 0-17.2 10.9-17.2 21.9 0 4.7 1.4 13.7 7 19.8 5 5.3 9.4 5.9 13.1 5.9 8.4 0 15-4.2 18.2-8.8.4-.5.7-.8.9-.5l1.1 1.1z"/><path class="st1" d="M45.8 124.2c-3.1 7.6-9.1 18.1-20 24.7-10.8-6.6-16.9-17-20-24.7-2.9-7-4-13-4.2-14.8 1.3-.7 2.6-1.1 4-1.1 1 0 2.5.2 3.3.4l.5.1c.4.1.9.3 1.3.4 1.6.5 3.4.9 4.8.9 1.5 0 3.9-.2 6.6-1.1.8-.3 1.7-.6 2.7-.7l.9-.1 1.4.1c.8.1 1.6.4 2.3.6 2.7.9 5.1 1.1 6.6 1.1.9 0 2.1-.2 3.8-.7.7-.2 1.4-.4 2-.6l.8-.2c.8-.2 2.3-.4 3.4-.4 1.5 0 2.8.4 4.1 1-.3 2.1-1.4 8.1-4.3 15.1M.9 98.2l15.8 3.4c-.1.2-.3.5-.4.7L.9 100.2v-2m.6-5.8l16.4 7.6c-.3.4-.6.7-.9 1.1L1 96.6c.1-1.3.3-2.7.5-4.2m.4-2.5c.6.1 1.9.4 3.5.6l13.3 8.6-.5.5-16.4-8.8c0-.3.1-.6.1-.9m7.1.8c1.7 0 3.3-.1 4.8-.4l6.7 7.5c-.5.3-1 .6-1.4 1L8 90.7h1m8.6-1.5l4.5 7.8c-.3.1-.6.2-.9.4l-5.7-7.6c.7-.1 1.4-.3 2.1-.6m5.9-2.8l1.4 10c-.8.1-1.5.2-2.2.4L19 88.7c1.8-.7 3.3-1.6 4.5-2.3m2.3-1.7c.3.3.7.5 1 .8l-.6 10.9h-.8l-.6-10.9c.4-.4.8-.6 1-.8m2.3 1.7c1.6 1 3.2 1.8 4.5 2.3l-3.7 8.1c-.7-.2-1.4-.4-2.1-.4l1.3-10zm5.9 2.8c1 .3 1.7.5 2.1.6l-5.7 7.6c-.3-.1-.6-.3-.9-.4l4.5-7.8zm3.8 1c1.7.3 3.4.4 5.1.4h.6l-11.1 8.1c-.4-.4-.9-.7-1.4-1l6.8-7.5zm8.3.3c1.7-.2 2.9-.4 3.6-.6.1.3.1.6.2.9l-16.5 8.8-.5-.5 13.2-8.6zm4 1.8c.2 1.5.4 2.9.5 4.3l-16 4.5-.9-1.2 16.4-7.6zm.6 8l-15.4 2.1c-.1-.2-.2-.5-.4-.7l15.7-3.4c.1.6.1 1.3.1 2m-4.7 3.3c-1 0-2.6.2-3.6.5l-.7.2-2.1.6c-1 .3-2.3.6-3.4.6-.1-.9-.4-1.8-.7-2.6l15.2-1.1c0 1.1-.1 2-.1 2.9-1.4-.7-3-1.1-4.6-1.1m-.1 2c-1 0-2.6.2-3.6.5l-.7.2-2.1.6.1.4-.1-.4c-1 .3-2.5.6-3.6.6-1.5 0-3.7-.2-6.3-1.1-.6-.2-1.5-.5-2.4-.7-.5-.1-1-.1-1.5-.1-.4 0-.7 0-1.1.1-1.1.1-2 .4-2.8.7-2.6.9-4.8 1.1-6.3 1.1-1.2 0-3-.4-4.5-.9l-1.8-.5c-.9-.3-2.4-.5-3.5-.5-1.5 0-3.1.4-4.4 1.1 0-.3-.1-.6-.1-1 1.4-.7 3-1.1 4.6-1.1 1 0 2.5.2 3.3.4l1.8.5.1-.4-.1.4c1.7.5 3.4.9 4.8.9 1.5 0 3.9-.2 6.6-1.2.8-.3 1.7-.6 2.6-.7l1-.1 1.4.1c.8.1 1.7.4 2.3.6 2.7.9 5.1 1.1 6.6 1.1.9 0 2.1-.2 3.8-.7l2.1-.6.7-.2c.8-.2 2.3-.4 3.4-.4 1.5 0 3.2.4 4.5 1.1 0 .4-.1.7-.1 1-1.6-.5-3.1-.8-4.7-.8m-20.1-2c-.4 0-.7 0-1.1.1-1.1.1-2 .4-2.8.7-2.2.8-4.2 1-5.6 1.1.7-4.7 4.7-8.3 9.5-8.3s8.8 3.6 9.5 8.2c-1.4-.1-3.4-.3-5.6-1.1-.6-.2-1.5-.5-2.4-.7-.5.1-1 0-1.5 0M.9 101.8l15.2 1.1c-.3.8-.6 1.7-.7 2.6-1.2 0-2.8-.5-4.3-.9l-1.8-.5c-.9-.3-2.4-.5-3.5-.5-1.6 0-3.3.4-4.7 1.1-.1-.8-.2-1.8-.2-2.9m45.1 5.7c-1 0-2.6.2-3.6.5l-.8.2c-.6.2-1.3.4-2 .6l.1.4-.1-.4c-1.6.4-2.7.6-3.6.6-1.5 0-3.7-.2-6.3-1.1-.7-.2-1.5-.5-2.4-.7-.9-.2-1.7-.2-2.5-.1-1.1.1-2 .4-2.8.7-2.6.9-4.8 1.1-6.3 1.1-1.3 0-3-.5-4.5-.9l-.1.4.1-.4c-.5-.1-.9-.3-1.3-.4h-.7c-.9-.3-2.4-.5-3.5-.5-1.5 0-2.9.4-4.2 1 0-.2-.1-.6-.1-1 1.3-.7 2.8-1.1 4.3-1.1 1 0 2.5.2 3.3.4l1.8.5.1-.4-.1.4c1.7.5 3.4.9 4.8.9 1.5 0 3.9-.2 6.6-1.1.8-.3 1.7-.6 2.7-.7l.9-.1h.1l1.4.1c.8.1 1.7.4 2.3.6 2.7.9 5.1 1.1 6.6 1.1.9 0 2.1-.2 3.8-.7l2.1-.6.7-.2c.8-.2 2.3-.4 3.4-.4 1.5 0 3 .4 4.3 1.1 0 .4-.1.7-.1.9-1.6-.4-2.9-.7-4.4-.7m5.6-9.5l-.1-1.6c-.1-1.4-.3-2.9-.5-4.5l-.2-1c-.1-.6-.2-1.1-.3-1.7l-.1-.5-.5.1s-.8.2-2 .4l-3 .3c-.6 0-1.2.1-1.9.1-1.8 0-3.5-.2-5.2-.5l-1.1-.2h-.1s-.9-.2-2.2-.6l-1.4-.4c-1.4-.6-3.1-1.4-4.8-2.5l-1.4-1c-.3-.2-.5-.4-.8-.6l-.3-.3-.3.3s-.3.2-.7.6l-1.4 1c-1.2.8-2.8 1.7-4.8 2.5l-1.4.5c-.7.2-1.4.5-2.2.6h-.1l-1.2.3c-1.4.3-3 .4-4.7.4-.8 0-1.6 0-2.3-.1l-3-.4c-1.2-.2-1.9-.4-2-.4l-.5-.1-.1.5c0 .5 0 1-.1 1.4L.6 92c-.2 1.5-.4 3-.5 4.4V98c0 .8 0 1.5-.1 2.2v1.5c.1 4.3.6 7.2.6 7.4 0 .4.9 7.2 4.4 15.5 3.2 7.8 9.3 18.4 20.4 25.1l.5.3.5-.3c11-6.7 17.1-17.4 20.3-25.1 3.4-8.3 4.3-15.1 4.3-15.5 0-.2.5-3.1.6-7.4V98"/><path class="st1" d="M38.6 119.3c-.1.1-.3.2-.5.2h-3.4c-.4 0-.7-.3-.7-.7 0-.4.3-.7.7-.7h3.4c.4 0 .7.3.7.7 0 .1 0 .3-.2.5m-.6 1.2c-.1.1-.3.2-.5.2h-2.1c-.4 0-.6-.3-.7-.7h3.5c-.1.2-.1.4-.2.5m-.9 8.9h-1.4l-.4-8.1h2.1l-.3 8.1zm.9 1.1c0 .3-.3.6-.6.6h-2v.3-.3c-.3 0-.6-.3-.6-.6s.3-.6.6-.6h2c.3 0 .6.3.6.6m-1.6 5c-.2 0-.4-.2-.4-.4l-.2-3.4H37l-.2 3.4c0 .2-.2.4-.4.4m-2.8-19.2c0-.5.2-.8.4-1.2.2-.5.5-1 .4-1.7.3.1.8.4 1.1.7-.1.1-.2.2-.2.3 0 0-1.4 1.4-.4 3.1h-.5c-.2-.1-.8-.4-.8-1.2m3-2.9c.1-.2.1-.4 0-.7.6.5 1.2 1.3 1.2 2.3 0 1.2-.8 2.1-1.1 2.5h-.2c-.2-.3-.7-1.1-.2-1.9.1-.2.5-.9.6-1 .1-.2.1-.3.1-.3-.1.1-.2.3-.2.3-.1.1-.6.6-.7.8-.7.9-.2 1.9 0 2.2h-.6c-1.1-1.5.1-2.6.1-2.7.1-.1.2-.2.2-.3.4-.4.7-.7.8-1.2m1.7.4c.2-.3.4-.5.6-.6-.1 1.3.5 2.5.5 2.5.3 1.1-.8 1.6-1 1.7h-.9c.4-.5.9-1.4.9-2.5.1-.4-.1-1.1-.1-1.1m.7 4c.6-.4 1.3-1.1.9-2.2 0 0-.8-1.5-.4-2.7l.1-.4h-.4c-.1 0-.6.1-1.3.8-.6-1.1-1.7-1.7-1.8-1.7l-1-.6.7 1c.1.2.4.8.3 1.2-.1.2-.2.4-.3.5-.7-.7-1.7-1-1.8-1l-.5-.1.2.5c.3.7.1 1.2-.2 1.7-.2.4-.4.9-.4 1.5 0 .8.4 1.2.7 1.5-.3.2-.4.6-.4.9 0 .5.3.9.7 1.1.1.6.3 1.1.7 1.2l.4 8.3c-.5.1-.9.5-.9 1.1 0 .6.4 1 1 1.1l.2 3.5c0 .5.4 1 1 1 .5 0 1-.4 1-1l.2-3.5c.6-.1 1-.5 1-1.1 0-.6-.4-1-.9-1.1l.4-8.3c.1-.1.2-.1.3-.2.2-.2.4-.6.4-1.1.1-.1.2-.1.3-.2.2-.2.4-.6.4-.9-.2-.2-.4-.6-.6-.8m-22.3 1.7h-3.4c-.4 0-.7-.3-.7-.7 0-.2.1-.4.2-.5.1-.1.3-.2.5-.2h3.5c.4 0 .7.3.7.7-.1.4-.4.7-.8.7m-.2 1c-.1.1-.3.2-.5.2h-2.1c-.3 0-.6-.3-.7-.7h3.5c0 .3 0 .4-.2.5m-.8 8.9h-1.4l-.4-8.1H16l-.3 8.1zm.9 1.1c0 .2-.1.3-.2.4-.1.1-.3.2-.4.2h-2v.3-.3c-.3 0-.6-.3-.6-.6s.3-.6.6-.6h2c.3 0 .6.3.6.6m-1.6 5c-.2 0-.4-.2-.4-.4l-.2-3.4h1.2l-.2 3.4c0 .2-.2.4-.4.4m-2.8-19.2c0-.5.2-.8.4-1.2.2-.5.5-1 .4-1.7.3.1.8.4 1.1.7l-.2.2s-1.4 1.4-.4 3.1h-.2c-.1 0-.2 0-.3.1-.1 0-.8-.3-.8-1.2m3-2.9c.1-.2.1-.5 0-.7.6.5 1.2 1.3 1.2 2.3 0 1.2-.8 2.1-1.1 2.5h-.2c-.2-.3-.7-1.1-.2-1.9.1-.2.6-.9.6-1 .1-.2.1-.3.1-.3-.1.1-.2.3-.2.3-.1.1-.6.6-.7.8-.7.9-.2 1.9-.1 2.2H14c-1.1-1.5.1-2.6.1-2.7.1-.1.2-.2.2-.3.5-.4.7-.7.9-1.2m1.6.5c.2-.3.5-.5.6-.6-.1 1.3.5 2.5.5 2.5.3 1.1-.8 1.6-1 1.7H16c.4-.5.9-1.4.9-2.5.1-.4-.1-1.1-.1-1.1m.8 3.9c.6-.4 1.3-1.1.9-2.2 0 0-.8-1.5-.4-2.7l.1-.4h-.4c-.1 0-.6.1-1.3.8-.7-1.1-1.7-1.7-1.8-1.7l-1-.6.7 1c.1.2.4.8.3 1.2-.1.2-.2.4-.3.5-.7-.7-1.7-1-1.8-1l-.5-.1.2.5c.3.7.1 1.2-.2 1.7-.2.4-.4.9-.4 1.5 0 .8.4 1.3.7 1.5h-.1c-.2.2-.4.6-.4.9 0 .5.3.9.7 1.1.1.6.3 1 .7 1.2l.4 8.3c-.5.1-.9.6-.9 1.1 0 .6.4 1 1 1.1l.2 3.5c0 .5.4 1 1 1 .5 0 1-.4 1-1l.2-3.5c.3 0 .5-.1.7-.3.2-.2.3-.5.3-.8 0-.5-.4-1-.9-1.1l.4-8.3c.1-.1.2-.1.3-.2.2-.2.4-.6.4-1.1.4-.2.6-.6.6-1.1 0-.2-.2-.5-.4-.8m11.4 3.1c-.2.2-.5.3-.8.3h-4.8c-.6 0-1.1-.5-1.1-1.1 0-.6.5-1.1 1.1-1.1h4.8c.6 0 1.1.5 1.1 1.1 0 .3-.1.5-.3.8m-1.8 1.9h-2.9c-.5 0-.9-.5-1.1-1h5.1c-.1.4-.6 1-1.1 1m-.3 12.2h-2.2l-.5-11.7h3.2l-.5 11.7zm1.3 1.5c0 .5-.4.9-.9.9h-2.8c-.5 0-.9-.4-.9-.9s.4-.9.9-.9h2.8c.4 0 .9.4.9.9m-1.7 6.4c0 .2-.1.4-.2.5-.1.1-.3.2-.5.2s-.4-.1-.5-.2c-.1-.1-.2-.3-.2-.5l-.2-4.9h1.9l-.3 4.9zm-4.7-26.3c0-.7.3-1.2.5-1.8.4-.7.7-1.5.5-2.5.5.2 1.2.5 1.7 1.1l-.2.2-.3.3s-2 1.9-.5 4.3h-.2c-.1 0-.3 0-.4.1 0 .1-1.1-.3-1.1-1.7m4-4.1c.1-.4.1-.9 0-1.3.8.7 2.1 2 2.1 3.6 0 1.8-1.1 3.1-1.6 3.6h-.1c-.2-.3-.5-.9-.5-1.5 0-1.2.6-1.9.6-1.9s-.7.5-.9 1.6c-.1.5.1 1.1.4 1.8h-.7c-.3-.4-1-1.5-.2-2.8.1-.2.9-1.2 1-1.4.1-.2.1-.4.1-.4-.1.2-.3.4-.3.4-.2.2-.8.8-1 1.1-1.1 1.4-.2 2.9 0 3.2h-.4c-1.6-2.1.1-3.9.2-3.9.1-.1.2-.2.3-.4.4-.6.8-1 1-1.7m3.5.3c-.4 1.7.2 3.1.2 3.1.5 1.6-.7 2.3-1 2.5h-1.4c.6-.7 1.4-2 1.4-3.6 0-.4-.1-.8-.2-1.2.4-.4.8-.7 1-.8m-.2 5.9c.6-.4 1.4-1.4.9-2.9 0 0-.6-1.6-.1-3.3l.1-.4-.4.1s-.8.1-1.6 1c-.8-1.7-2.6-2.8-2.7-2.9l-.9-.5.5.9s.6 1 .3 1.7c-.1.3-.2.5-.4.8-.9-1-2.4-1.3-2.4-1.4l-.5-.1.2.5c.4 1 .1 1.7-.3 2.5-.3.6-.6 1.2-.6 2 0 1.1.6 1.8 1.1 2.1-.4.3-.7.8-.7 1.3 0 .7.4 1.2.9 1.5.1.6.5 1.3 1 1.6l.5 11.9c-.7.1-1.2.7-1.2 1.5s.6 1.4 1.4 1.5l.2 4.9c0 .3.1.6.4.9.2.2.6.4.9.4.3 0 .7-.1.9-.4.2-.2.4-.6.4-.9l.2-4.9c.8 0 1.4-.7 1.4-1.5s-.6-1.4-1.3-1.5l.5-11.9c.5-.3.9-1 1-1.6.1-.1.3-.2.4-.3.3-.3.5-.7.5-1.2.2-.6-.1-1.1-.6-1.4M10.5 23.3H8.8c-.2 0-.4 0-.4-.2-.1-.3.2-.4.2-.4s-.1.1 0 .3c.1.1.2.1.3.1h1.9c0 .2-.3.2-.3.2m-.4 7.5h-.9c-.1 0-.3 0-.3-.2-.1-.2.1-.2.1-.2v.2c0 .1.1.1.2.1h1c.1.1-.1.1-.1.1"/><path class="st1" d="M10.8 23.5H8.5c-.3 0-.5-.2-.5-.5s.2-.5.4-.5h2.3c.2 0 .4.2.4.5.1.3-.1.5-.3.5m-.6.6H9c-.2 0-.4-.1-.5-.2h2.2c-.1.1-.3.2-.5.2m-.8.3h.9l-.2 5.5h-.6l-.1-5.5zm-.5 0h.2l.2 5.4h-.1l-.3-5.4zm1.8 6.2c0 .2-.2.4-.4.4H9c-.2 0-.4-.2-.4-.4s.2-.4.4-.4h1.3c.2 0 .4.2.4.4m-.8 3c0 .2-.1.3-.3.3-.1 0-.3-.1-.3-.3l-.1-2.2h.1l.1 2.2c0 .2.1.2.1.2v-2.4h.5l-.1 2.2zM7.8 21.4c0-.3.1-.5.2-.8.2-.3.3-.7.2-1.1.2.1.4.2.5.4-.1.1-.2.3-.3.4-.5.6-.7 1.2-.1 2h.1c-.1-.1-.6-.3-.6-.9m1.7-2.5c.4.3.9 1 1 1.7 0 .7-.6 1.4-.7 1.5-.1-.1-.2-.4-.3-.8 0-.6.3-.9.3-.9s-.4.3-.5.8c0 .2 0 .5.2.9h-.2c-.1-.1-.5-.7-.1-1.4.1-.1.4-.5.4-.6v-.2c0 .1-.1.2-.1.2l-.5.5c-.6.7 0 1.4 0 1.5h-.2c-.2-.3-.3-.6-.3-1 0-.8 1.1-.9 1-2.2m1.6.8c-.1.7.1 1.3.1 1.4.2.7-.3 1-.5 1.1h-.5c.3-.4.6-1 .6-1.5V20l.3-.3m.1 2.6c.3-.3.5-.7.4-1.3 0 0-.3-.7 0-1.5l.1-.3h-.3s-.4.1-.7.4c-.3-.6-.9-1.1-1.6-1.5.2.7.3 1 .1 1.3-.4-.4-1-.5-1-.5h-.3l.1.3c.2.5 0 .8-.1 1.1-.1.3-.3.6-.3 1 0 .5.3.8.5 1-.2.1-.3.4-.3.6 0 .3.2.6.4.7.1.2.2.4.5.6l.3 5.6c-.3.1-.6.4-.6.7 0 .4.3.7.7.7L9 33.6c0 .3.3.6.6.6s.6-.3.6-.6l.1-2.2c.4 0 .7-.4.7-.7 0-.4-.3-.7-.6-.7l.2-5.6c.2-.1.4-.3.5-.6.2-.1.4-.4.4-.7.1-.4-.1-.6-.3-.8m13.3 1h-1.7c-.2 0-.4 0-.4-.2-.1-.3.2-.4.2-.4s-.1.1 0 .3c0 .1.2.1.3.1h1.9c0 .2-.3.2-.3.2m-.5 7.5h-.8c-.1 0-.3 0-.3-.2-.1-.2.1-.2.1-.2v.2c0 .1.1.1.2.1h1c0 .1-.2.1-.2.1"/><path class="st1" d="M24.8 23.5h-2.3c-.2 0-.4-.2-.4-.5s.2-.5.4-.5h2.3c.2 0 .4.2.4.5s-.2.5-.4.5m-.6.6H23c-.2 0-.4-.1-.5-.2h2.2c-.1.1-.3.2-.5.2m-.8.3h.9l-.3 5.5h-.6v-5.5zm-.5 0h.2l.2 5.4h-.2l-.2-5.4zm1.7 6.2c0 .2-.2.4-.4.4H23c-.2 0-.4-.2-.4-.4s.2-.4.4-.4h1.3c.2 0 .3.2.3.4m-.7 3c0 .2-.1.3-.3.3-.1 0-.3-.1-.3-.3l-.1-2.2h.1l.1 2.2c0 .2.1.2.1.2v-2.4h.5l-.1 2.2zm-2.1-12.2c0-.3.1-.5.2-.8.2-.3.3-.7.2-1.1.2.1.4.2.5.4-.1.1-.2.3-.3.4-.5.6-.7 1.2-.1 2h-.1c.1-.1-.4-.3-.4-.9m1.7-2.5c.4.3 1 1 1 1.7s-.6 1.4-.7 1.5c-.1-.1-.2-.4-.3-.8 0-.6.3-.9.3-.9s-.4.3-.5.8c0 .2 0 .5.2.9h-.2c-.1-.1-.5-.7-.1-1.4.1-.1.4-.5.4-.6v-.2c0 .1-.1.2-.1.2l-.5.5c-.6.7 0 1.4 0 1.5h-.2c-.2-.3-.3-.6-.3-1 0-.8 1.1-.9 1-2.2m1.5.8c-.1.7.1 1.3.1 1.4.2.7-.3 1-.5 1.1h-.5c.3-.4.6-1 .6-1.5V20l.3-.3m.1 2.6c.3-.3.6-.7.4-1.3 0 0-.3-.7 0-1.5l.1-.3h-.3s-.4.1-.7.4c-.3-.6-.9-1.1-1.6-1.5.2.7.3 1 .1 1.3-.4-.4-1-.5-1-.5h-.3l.1.3c.2.5 0 .8-.1 1.1-.1.3-.3.6-.3 1 0 .5.3.8.5 1-.2.1-.3.4-.3.6 0 .3.2.6.4.7.1.2.2.4.5.6l.3 5.6c-.3.1-.6.4-.6.7 0 .4.3.7.7.7l.1 2.2c0 .3.3.6.6.6s.6-.3.6-.6l.1-2.2c.4 0 .7-.4.7-.7 0-.4-.3-.7-.6-.7l.2-5.6c.2-.1.4-.3.5-.6.2-.1.4-.4.4-.7-.1-.2-.2-.4-.5-.6m-6.8 2.3h-3.1c-.4 0-.7-.3-.7-.7 0-.4.3-.7.7-.7h3.3c.3.1.6.4.6.7-.1.4-.4.7-.8.7m-.6.8h-1.9c-.3 0-.6-.2-.7-.4h3.3c-.1.2-.4.4-.7.4m-.3 8.1h-.9l-.1-7.7h1.3l-.3 7.7zm.9.9c0 .3-.3.6-.6.6h-1.8c-.3 0-.6-.3-.6-.6s.3-.6.6-.6h1.8c.3 0 .6.3.6.6m-1.1 4.1c0 .3-.2.5-.5.5s-.5-.2-.5-.5l-.1-3.1h.3l.1 3.1c0 .2.1.3.1.3l-.1-3.3h.8l-.1 3zM16 25.7l.3 7.7H16l-.4-7.7h.4zm-1.8-4c0-.4.2-.8.3-1.1.2-.5.5-1 .3-1.6.3.1.6.2.9.6-.1.1-.2.2-.2.3l-.2.2c-.1.1-1.2 1.3-.3 2.8h-.1c-.1-.1-.7-.4-.7-1.2m2.3-2.7c.1-.3.1-.6 0-.9.5.4 1.5 1.3 1.5 2.4 0 1.1-.7 2-1 2.3-.2-.2-.3-.6-.3-1 0-.8.4-1.2.4-1.2s-.6.4-.6 1.1c0 .3 0 .7.3 1.2h-.3c-.1-.2-.7-1-.2-1.9.1-.2.5-.7.5-.9.1-.1.1-.3.1-.3l-.2.2c-.1.1-.5.5-.6.7-.8.9 0 1.9 0 2.1h-.4c-1.1-1.4.1-2.5.1-2.5.1-.1.1-.2.2-.2.1-.4.3-.6.5-1.1m2.3.2c-.2 1 .1 1.9.2 2 .3.9-.4 1.4-.6 1.6h-.9c.4-.4.9-1.3.9-2.3 0-.3 0-.5-.1-.8.1-.3.4-.4.5-.5m0 3.7c.4-.3.8-.9.5-1.8 0 0-.4-1-.1-2.1l.1-.3H19s-.5.1-1 .6c-.5-1.1-1.7-1.8-1.7-1.8l-.4-.2.2.5c.1.2.2.8.1 1.1 0 .1-.1.2-.1.3-.6-.6-1.4-.7-1.4-.7h-.3l.1.3c.3.7.1 1.1-.2 1.6-.2.4-.4.8-.4 1.3 0 .7.4 1.1.7 1.3-.3.2-.4.5-.4.9s.2.8.6 1c.1.4.3.7.6.8l.4 7.8c-.4.1-.8.5-.8.9 0 .5.4.9.9.9l.1 3.2c0 .4.4.8.8.8s.8-.4.8-.8l.1-3.2c.5 0 .9-.4.9-1 0-.5-.4-.9-.8-.9l.4-7.8c.3-.1.6-.5.6-.8.3-.2.6-.5.6-1-.1-.3-.3-.7-.6-.9"/><path class="st1" d="M15 23.9c-.1-.2 0-.4.1-.5 0 0-.4.1-.3.6.1.4.3.4.7.4h2.8s.3 0 .5-.3h-3.1c-.4 0-.6 0-.7-.2m.7 10.5c-.1-.2 0-.3 0-.4 0 0-.3.1-.3.4.1.3.3.3.5.3h1.5s.3 0 .4-.2H16c-.1.1-.2.1-.3-.1"/><path class="st1" d="M29.7 26.5c-2 5-5.9 11.8-12.9 16-7-4.3-10.9-11-13-16C1.9 21.9 1.2 18 1 16.9c.8-.5 1.7-.7 2.6-.7.7 0 1.6.1 2.1.3l.3.1c.3.1.6.2.8.2 1 .3 2.2.6 3.1.6 1 0 2.5-.1 4.3-.7.5-.2 1.1-.4 1.7-.4h.6l.9.1c.5.1 1 .3 1.5.4 1.7.6 3.3.7 4.3.7.6 0 1.4-.1 2.5-.4.5-.1.9-.3 1.3-.4l.5-.1c.5-.2 1.5-.3 2.2-.3.9 0 1.8.2 2.6.7 0 1-.7 4.9-2.6 9.5M10.4 12.6c-.2.5-.4 1.1-.4 1.7-.8 0-1.9-.3-2.8-.6L6 13.4c-.6-.2-1.6-.3-2.3-.3-1 0-2.1.2-3 .7 0-.6-.1-1.2-.1-1.9l9.8.7zM.6 9.5l10.2 2.2c-.1.2-.2.3-.3.5l-10-1.3c.1-.4.1-.9.1-1.4M1 5.8l10.6 4.9c-.2.2-.4.5-.6.7L.7 8.5c0-.8.1-1.8.3-2.7m.2-1.6c.4.1 1.2.2 2.3.4l8.6 5.6-.3.3L1.1 4.7c.1-.1.1-.3.1-.5m4.6.5c1.1 0 2.2-.1 3.2-.3l4.4 4.9-.9.6-7.3-5.2h.6m5.6-1l2.9 5.1c-.2.1-.4.2-.6.2L10 4.2c.5-.2 1-.3 1.4-.5m3.8-1.8l.9 6.5c-.5 0-1 .1-1.4.3l-2.4-5.3c1.2-.5 2.2-1 2.9-1.5M16.7.8c.2.2.4.4.7.5L17 8.4h-.5l-.4-7.1c.3-.2.5-.4.6-.5m1.5 1.1c1 .7 2.1 1.2 2.9 1.5l-2.4 5.3c-.4-.1-.9-.2-1.4-.3l.9-6.5zM22 3.7c.6.2 1.1.3 1.4.4L19.7 9c-.2-.1-.4-.2-.6-.2L22 3.7zm2.5.7c1.1.2 2.2.3 3.3.3h.4L21 9.9c-.3-.2-.6-.5-.9-.6l4.4-4.9zm5.4.1c1.1-.1 1.9-.3 2.3-.4 0 .2.1.4.1.6l-10.7 5.7-.3-.3 8.6-5.6zm2.6 1.3c.1 1 .2 1.9.3 2.8l-10.4 2.9c-.2-.3-.4-.5-.6-.8l10.7-4.9zm.4 5.1l-10 1.3c-.1-.2-.2-.3-.2-.5l10.2-2.2v1.4m-7.1 3.3l-.1-.3c-.6.2-1.5.4-2.2.4-.1-.6-.2-1.2-.5-1.7l9.8-.7c0 .7 0 1.3-.1 1.9-.9-.4-1.9-.7-3-.7-.6 0-1.7.1-2.3.3l-.4.1c-.4.1-.9.3-1.4.4l.2.3zm-9-1.1h-.7c-.7.1-1.3.3-1.8.5-1.4.5-2.7.7-3.7.7.4-3.1 3-5.4 6.2-5.4 3.1 0 5.7 2.3 6.2 5.3-.9 0-2.2-.2-3.6-.7-.4-.1-1-.3-1.6-.4h-1m-6.7 1.8c.7 0 1.7-.1 2.8-.3.5-.1 1-.2 1.5-.4s1.1-.4 1.7-.4h.6l.9.1c.6.1 1.1.3 1.5.4.6.2 1.3.4 1.8.5 1 .2 1.8.2 2.4.2.6 0 1.4-.1 2.5-.4.5-.1.9-.3 1.4-.4l.4-.1c.5-.2 1.5-.3 2.2-.3 1 0 2 .3 2.9.7 0 .2 0 .5-.1.6-.9-.4-1.9-.7-2.9-.7-.6 0-1.7.1-2.3.3l-.4.1c-.4.1-.9.3-1.3.4-.7.2-1.6.4-2.3.4-.9 0-2.4-.1-4.1-.7-.2-.1-.4-.2-.7-.2-.3-.1-.6-.2-.9-.2-.3-.1-.6-.1-1-.1H16c-.4 0-.7.1-1 .2-.3.1-.6.2-.8.3-1.7.6-3.1.7-4.1.7-.8 0-1.9-.3-2.9-.6L6 14.7c-.6-.2-1.6-.3-2.3-.3-1 0-2 .2-2.9.7 0-.2 0-.4-.1-.6.9-.5 2-.7 3-.7.7 0 1.6.1 2.1.3l1.2.2.1-.3-.1.3c1.1.3 2.3.6 3.1.6m15.6 1.8l-.1-.3c-1 .3-1.8.4-2.3.4-1 0-2.4-.1-4.1-.7-.5-.2-1-.3-1.6-.4-.6-.1-1.1-.1-1.7 0-.7.1-1.3.3-1.8.5-1.7.6-3.1.7-4.1.7-.8 0-1.9-.3-2.9-.6l-.1.3.1-.3c-.3-.1-.6-.2-.8-.2l-.3-.2c-.6-.2-1.6-.3-2.3-.3-1 0-1.9.2-2.7.7 0-.1-.1-.4-.1-.6.9-.5 1.8-.7 2.8-.7.7 0 1.6.1 2.1.3l1.2.3.1-.3-.1.3c1.1.3 2.2.6 3.1.6 1 0 2.5-.1 4.3-.7.5-.2 1.1-.4 1.7-.4h.6l.9.1c.5.1 1 .3 1.5.4 1.7.6 3.3.7 4.3.7.6 0 1.4-.1 2.5-.4.5-.1.9-.3 1.3-.4l.5-.1c.5-.2 1.5-.3 2.2-.3 1 0 2 .3 2.8.7 0 .3-.1.5-.1.6-.9-.4-1.8-.6-2.7-.6-.6 0-1.7.1-2.3.3L27 16c-.4.1-.9.3-1.3.4v.3zm7.7-7.3l-.1-1c-.1-.9-.2-1.9-.3-2.9l-.1-.7c-.1-.4-.1-.7-.2-1.1l-.1-.3-.3.1s-.5.1-1.3.3L29 4h-1.2c-1.1 0-2.3-.1-3.4-.3l-.7-.1s-.6-.1-1.4-.4l-.9-.3c-.9-.4-2-.9-3.1-1.6l-.9-.7c-.2-.1-.3-.3-.5-.4l-.2-.2-.2.2s-.2.2-.5.4l-.9.7c-.8.5-1.8 1.1-3.1 1.6l-.9.3c-.4.2-.9.3-1.4.4l-.8.2c-.9.2-2 .3-3 .3-.5 0-1 0-1.5-.1l-2-.2c-.8-.1-1.3-.2-1.3-.2l-.3-.1-.1.3c0 .3-.1.6-.1.9l-.2.8C.2 6.5.1 7.4.1 8.4l-.1 1v2.4c.1 2.8.4 4.7.4 4.8 0 .2.6 4.7 2.8 10.1 2.1 5 6.1 11.9 13.2 16.3l.3.2.3-.2c7.2-4.4 11.1-11.3 13.2-16.3 2.2-5.4 2.8-9.8 2.8-10.1 0-.2.3-2 .4-4.8v-1c.1-.4.1-.9 0-1.4"/><path class="st0" d="M39.7 5.4c0-.7-.2-1.1-.7-1.1h-1c-.1 0-.2 0-.2-.2v-.5c0-.1 0-.2.2-.2s1.3.1 3.4.1c1.8 0 2.9-.1 3.2-.1.1 0 .2 0 .2.2v.5c0 .1 0 .2-.2.2h-.9c-.7 0-1 .4-1.1.9 0 .3-.1 1.6-.1 2.8v2.7c0 1.1 0 2.6.1 3.3.1 1 .2 2 .8 2.7.7 1 1.9 1.4 3 1.4 1 0 2.2-.4 2.9-1 .8-.8 1.3-2.1 1.3-3.7V9.5c0-1.8-.2-3.7-.2-4.2-.1-.6-.4-1-.9-1h-.8c-.1 0-.2-.1-.2-.2v-.5c0-.1 0-.2.2-.2s1.2.1 2.7.1c1.4 0 2.1-.1 2.2-.1.2 0 .2.1.2.2v.5c0 .1 0 .2-.1.2h-.8c-.8 0-.9.6-.9.9v3.6c0 .3 0 4.1-.1 5-.1 1.8-.7 3.1-1.8 4.2-.9.8-2.3 1.4-4 1.4-1 0-2.3-.2-3.2-.5-1.3-.5-2.1-1.5-2.6-2.9-.3-1-.4-2.4-.4-5.3l-.2-5.3z"/><path class="st0" d="M54.2 14.1c.1 0 .1 0 .1.2 0 .7.2 1.5.8 2.5.7 1 1.8 1.6 2.9 1.6 1.2 0 2.8-.7 2.8-2.6 0-2-.9-2.7-3.2-3.5-.7-.3-2.1-.9-3.2-1.8-.7-.7-1.1-1.8-1.1-3.1 0-1.2.5-2.2 1.5-3.1.9-.7 1.8-1 3.1-1 1.4 0 2.3.3 2.8.5.2.1.3 0 .5-.1l.3-.3c.1-.1.2-.1.3-.1.2-.1.2.1.2.3 0 .4.4 3.4.4 3.6 0 .1 0 .1-.1.2l-.3.1c-.1 0-.2 0-.2-.1-.2-.6-.6-1.5-1.4-2.3-.6-.7-1.4-1-2.4-1-1.8 0-2.5 1.4-2.5 2.2 0 .7.1 1.4.6 2 .6.6 1.8 1.1 2.7 1.4 1.3.4 2.3.8 3.1 1.7.7.7 1.1 1.7 1.1 3.1 0 2.7-1.8 4.9-4.6 4.9-1.8 0-2.8-.4-3.7-1-.3-.2-.4-.3-.5-.3s-.2.2-.3.4c-.1.2-.2.3-.4.3s-.3-.1-.3-.4c0-.3.3-3.8.4-4.1 0-.1 0-.2.1-.2h.5zm24.3 1.3c.1.1.1.1 0 .2-1.3 1.9-3.4 3.7-6.5 3.7-2.8 0-4.4-.8-5.7-2.1-1.6-1.4-2.4-4-2.4-5.9 0-2.1.7-4.2 2.2-5.9 1.2-1.3 3.1-2.3 5.7-2.3 2 0 3.6.6 4.4 1.1.3.2.4.2.4 0l.2-.6c0-.1.1-.1.3-.1.3 0 .3 0 .3.3 0 .4.4 3.9.5 4.5 0 .1 0 .2-.1.2l-.4.1c-.1 0-.2 0-.2-.2-.3-.8-.8-1.9-1.7-2.8-1-.9-2.1-1.6-3.8-1.6-3.5 0-4.9 3.2-4.9 6.3 0 1.4.4 3.9 2 5.7 1.4 1.5 2.7 1.7 3.8 1.7 2.4 0 4.3-1.2 5.2-2.5.1-.2.2-.2.3-.2l.4.4z"/><path class="st1" d="M85.3 18.9c-1.5-.6-2.3-1.6-2.6-2.9-.3-1-.3-2.4-.3-5.3V5.4c0-.8-.2-1.1-.8-1.1h-1c-.1 0-.2 0-.2-.2v-.5c0-.1 0-.2.2-.2s1.3.1 3 .1 2.8-.1 3-.1c.2 0 .2 0 .2.1v.6c0 .1 0 .2-.2.2h-1.1c-.6 0-1 .4-1.1.9v4.2c0 1.2.1 3.9.1 4.6 0 1 .2 2 .7 2.8.8 1.2 2.2 1.6 3.5 1.6 1.2 0 2.5-.4 3.3-1.2.9-.9 1.1-2.2 1.1-3.9V8.8c0-1.7 0-2.9-.1-3.5-.1-.6-.4-1-1-1h-1c-.1 0-.2-.1-.2-.2v-.5c0-.1 0-.2.2-.2s1.2.1 2.7.1c1.5 0 2.2-.1 2.4-.1.2 0 .2.1.2.2v.5c0 .1 0 .2-.1.2h-.9c-.8 0-.9.6-.9.9v3.6c0 .3 0 4.1-.1 5-.1 1.8-.6 3.2-1.8 4.2-.9.8-2.2 1.3-4.1 1.3-1.2 0-2.3-.1-3.1-.4m18.8-1.1c0 .4.2.5.5.5h.7c.2 0 .2.1.2.2v.4c0 .2 0 .2-.2.2s-.8-.1-2.1-.1c-1.1 0-1.8.1-2 .1-.1 0-.2-.1-.2-.2v-.4c0-.2.1-.2.3-.2h.6c.2 0 .4-.1.4-.5v-4.7c0-.9 0-1.5-.6-2-.5-.4-1.1-.4-1.6-.4-.4 0-1.1.2-1.8.9-.4.5-.5 1.1-.5 1.5v4.5c0 .6.1.7.5.7h.5c.2 0 .2.1.2.2v.4c0 .1 0 .2-.2.2s-.7-.1-1.9-.1c-1.1 0-1.8.1-1.9.1-.1 0-.2-.1-.2-.2v-.4c0-.1 0-.2.2-.2h1c.3 0 .4-.1.4-.4v-5.1c0-.7-.3-1-.9-1.3l-.2-.1c-.2-.1-.2-.1-.2-.2v-.1c0-.1.1-.2.2-.2l1.9-1c.2-.1.3-.2.4-.2.1 0 .2.1.2.3l.2 1.3c.6-.8 1.9-1.6 3-1.6.7 0 1.3.1 1.9.5.7.4 1.2 1.5 1.2 2.1v5.5zm3.7-5.2c0-.7-.1-1.1-1.2-1.3-.2 0-.2-.1-.2-.2V11c0-.1 0-.1.2-.2.7-.3 1.5-.6 2.4-1.1.2-.1.3-.1.4-.1.1 0 .1.1.1.3v7.9c0 .4.1.6.3.6h1c.2 0 .2.1.2.2v.4c0 .2 0 .2-.2.2s-1.2-.1-2.1-.1c-1.3 0-2.1.1-2.4.1-.1 0-.2 0-.2-.2v-.4c0-.1.1-.2.2-.2h1.1c.2 0 .3-.1.4-.4v-5.4zm-1-6.6c0-.5.5-1.1 1.3-1.1s1.1.6 1.1 1.1c0 .6-.4 1.2-1.3 1.2-.4-.1-1.1-.5-1.1-1.2m8.8 11c.4-.9 1.9-4.6 2.2-5.4.2-.6 0-.9-.4-.9h-.4c-.1 0-.1-.1-.1-.2V10c0-.1 0-.2.1-.2.3 0 .8.1 1.8.1.9 0 1.4-.1 1.6-.1.2 0 .2 0 .2.2v.4c0 .2 0 .2-.1.2h-.4c-.3 0-.5 0-.7.2-.3.3-1.4 2.7-1.8 3.5-.3.7-1.9 4.3-2 4.5-.2.3-.3.5-.5.5s-.3-.2-.5-.5c0-.1-1.6-4.3-1.7-4.4-.1-.2-1-2.7-1.1-3-.3-.6-.5-.8-.9-.8h-.4c-.1 0-.1-.1-.1-.2V10c0-.2 0-.2.2-.2s.6.1 1.8.1c1.2 0 1.7-.1 2-.1.2 0 .2 0 .2.2v.4c0 .1 0 .2-.2.2h-.4c-.2 0-.4.1-.4.4 0 .4.6 2.2.7 2.6.1.4 1 2.9 1.3 3.4m5.9-3.8c0 .2-.1.5-.1 1 0 2.1 1.4 3.8 3.1 3.8 1.3 0 2.3-.8 2.6-1.5 0-.1.1-.1.2-.1l.3.2c.1 0 .1.1 0 .3-.4.9-1.5 2.4-3.5 2.4-1.2 0-2.6-.4-3.4-1.6-.8-1.1-1-1.9-1-3.5 0-.9.2-2.3 1.4-3.5.9-1 2-1.2 3.1-1.2 2.5 0 3.2 2.4 3.2 3.2 0 .3-.3.3-.6.3l-5.3.2zm3.5-.7c.4 0 .6-.1.6-.3 0-.5-.3-1.9-1.7-1.9-1 0-1.9.6-2.3 2.3 0-.1 3.4-.1 3.4-.1zm4.6.7c0-1.1-.2-1.3-.8-1.7l-.4-.2c-.1 0-.2-.1-.2-.2V11c0-.1 0-.1.2-.2l2.2-1.1c.1-.1.2-.1.3-.1.1 0 .2.1.2.3l.1 1.5h.1c.7-1 1.7-1.9 2.6-1.9.7 0 1.1.5 1.1 1 0 .6-.5 1.1-.9 1.1-.2 0-.5-.1-.6-.2-.2-.1-.4-.2-.7-.2-.4 0-.9.2-1.3.9-.1.2-.2.6-.2.7v4.6c0 .7.2.9.6.9h1c.1 0 .2.1.2.2v.4c0 .1 0 .2-.1.2s-1.1-.1-2.3-.1c-1.4 0-2.3.1-2.4.1-.1 0-.1 0-.1-.2v-.4c0-.2 0-.2.2-.2h.9c.3 0 .5-.1.5-.4v-2.6l-.2-2.1c-.1 0 0 0 0 0zm5.8 5.4c-.1-.1-.1-.2-.1-.3l-.4-2.1c0-.1 0-.2.1-.2l.3-.1c.1 0 .2 0 .2.1l.5 1.1c.4.8.7 1.4 1.9 1.4.8 0 1.7-.5 1.7-1.5s-.5-1.6-2.1-2c-1.3-.4-2.6-1.1-2.6-2.8 0-1.5 1.4-2.7 3.1-2.7 1.1 0 1.6.3 2 .5.3.2.4.3.4.4l.3 1.5c0 .1 0 .2-.2.2l-.3.1c-.1 0-.1 0-.2-.1l-.7-1c-.3-.4-.7-.9-1.5-.9s-1.7.5-1.7 1.4c0 1.3 1 1.5 2.1 1.8 1.6.5 2.6 1.1 2.6 2.8 0 1.8-1.5 2.9-3.3 2.9-.9.2-1.8-.3-2.1-.5m7.8-6c0-.7-.1-1.1-1.2-1.3-.2 0-.2-.1-.2-.2V11c0-.1 0-.1.2-.2.7-.3 1.5-.6 2.4-1.1.2-.1.3-.1.4-.1.1 0 .1.1.1.3v7.9c0 .4.1.6.4.6h1c.2 0 .2.1.2.2v.4c0 .2 0 .2-.2.2s-1.2-.1-2.1-.1c-1.3 0-2.1.1-2.4.1-.1 0-.2 0-.2-.2v-.4c0-.1.1-.2.2-.2h1.1c.2 0 .3-.1.4-.4v-2l-.1-3.4zm-1-6.6c0-.5.5-1.1 1.3-1.1s1.1.6 1.1 1.1c0 .6-.4 1.2-1.3 1.2-.4-.1-1.1-.5-1.1-1.2m7 10.3c0 1.6.7 1.9 1.1 1.9.5 0 1.1-.1 1.4-.3.1-.1.2 0 .3 0l.1.2c.1.1 0 .2 0 .2-.2.2-1.1.9-2.4.9-1.1 0-2.1-1-2.1-1.9 0-.9.1-2.8.1-3.1v-3.3h-1.3c-.2 0-.3-.1-.3-.3s.1-.2.4-.4c.5-.3 2.2-2 2.5-2.8.1-.2.2-.2.3-.2.2 0 .2.2.2.3l-.1 2.2h3c.1 0 .2.1.2.2l-.2.8c0 .1-.1.2-.2.2h-2.8c0 1-.1 2.1-.1 3.1l-.1 2.3zm3.7 7.6c0-.5.5-.9 1-.9.4 0 .8.2 1 .2.1 0 .3 0 .5-.1.3-.4 1.4-2.9 1.8-3.7-.1-.5-2.4-7.4-2.6-7.8-.3-.5-.5-.9-1-.9h-.6c-.1 0-.2-.1-.2-.2V10c0-.1 0-.2.2-.2s.7.1 2 .1c1.1 0 1.8-.1 2-.1.2 0 .2.1.2.2v.5c0 .1 0 .2-.1.2h-.4c-.2 0-.3.2-.3.5.1.5 1.6 5.3 1.8 5.8h.1c.2-.3 2.1-4.9 2.3-5.4.1-.5 0-.8-.4-.8h-.4c-.1 0-.2-.1-.2-.2V10c0-.1 0-.2.1-.2.3 0 .7.1 1.8.1.6 0 1.1-.1 1.3-.1.1 0 .1.1.1.2v.4c0 .1 0 .2-.1.2h-.4c-.2 0-.5.1-.8.4-.5.6-1.9 3.9-3.4 7.4-1.1 2.4-1.9 4.5-2.3 5.2-.3.6-.7 1.4-1.9 1.4-.7 0-1.1-.5-1.1-1.1m14.5-6.1c-1-1.2-1.2-2-1.2-3.6 0-1.1.6-2.5 1.9-3.5 1.1-.9 2.2-1.1 2.9-1.1 1.2 0 2.4.6 3.1 1.3 1 1 1.5 2.1 1.5 3.6 0 2.4-2.1 4.8-4.8 4.8-1.1 0-2.5-.4-3.4-1.5m6.3-3.6c0-2.4-1.8-4-2.9-4-.6 0-1.2.1-1.7.7-.9.9-1.2 1.8-1.2 3.4 0 1.2.1 2.1.8 3.1.5.7 1.1 1.1 2.2 1.1 1.8.1 2.8-1.9 2.8-4.3m4.1-3.3h-1.5c-.1 0-.1 0-.1-.2l.1-.7c0-.1.1-.2.3-.2h1.3v-.3c0-2.2.6-3.6 1.5-4.5 1.2-1.3 2.4-1.7 3.6-1.7 1 0 2 .4 2 1.2 0 .5-.6.9-.9.9-.2 0-.4 0-.6-.1-.2-.1-.4-.4-.5-.5-.3-.3-.6-.5-1-.5-.6 0-1.2.2-1.6.8-.8 1-.8 2.9-.8 4.5v.4h2.6c.2 0 .2.1.2.2l-.1.7c0 .1-.1.1-.3.1h-2.4v6.7c0 .4.1.6.6.6h1.2c.2 0 .2 0 .2.2v.4c0 .2 0 .3-.2.3-.1 0-.9-.1-2.6-.1-1.2 0-2.3.1-2.5.1-.1 0-.2 0-.2-.2v-.5c0-.1 0-.2.2-.2h1.1c.4 0 .5-.3.5-.8v-4.1l-.1-2.5zM40.9 38.7c-.3-.2-.4-.3-.5-.3-.1 0-.2.2-.3.4-.1.2-.2.3-.4.3-.1 0-.2-.1-.2-.4.1-.5.3-3.3.4-4 0-.1.1-.1.2-.1h.3c.1 0 .1 0 .1.2 0 .7.1 1.4.8 2.5.7 1 1.9 1.6 3.1 1.6 1.3 0 3-.8 3-2.8 0-2.3-1.6-3.1-3.4-3.7-.7-.2-2.3-.8-3.2-1.8-.8-.6-1.2-1.6-1.2-3 0-1.1.7-2.2 1.4-2.8.8-.7 1.9-1 3.1-1 1.2 0 2.2.4 2.6.5.2.1.3.1.4 0l.3-.3c.1-.1.2-.1.3-.1.1 0 .2.2.2.4 0 .8.3 3 .3 3.5 0 .1 0 .2-.1.2l-.3.1c-.1 0-.1 0-.1-.1-.2-.6-.5-1.5-1.4-2.4-.6-.6-1.4-.9-2.4-.9-1.9 0-2.6 1.4-2.6 2.6 0 .6.1 1.3.7 1.9.6.6 1.9 1.1 2.5 1.3 1.5.5 2.7.9 3.5 1.8.6.7 1 1.5 1 3 0 2.6-1.6 4.8-4.5 4.8-1.6-.2-2.7-.7-3.6-1.4m10.1-.4c-1-1.2-1.2-2-1.2-3.6 0-1.1.6-2.5 1.9-3.5 1.1-.9 2.2-1.1 2.9-1.1 1.2 0 2.4.6 3.1 1.3 1 1 1.5 2.1 1.5 3.6 0 2.4-2.1 4.8-4.8 4.8-1.1 0-2.5-.4-3.4-1.5m6.3-3.5c0-2.4-1.8-4-2.9-4-.6 0-1.2.1-1.7.7-.9.9-1.2 1.8-1.2 3.4 0 1.2.1 2.1.8 3.1.5.7 1.1 1.1 2.2 1.1 1.7 0 2.8-2 2.8-4.3m10.9.3v2.6c.1.7.3.8.6.8.1 0 .5 0 .7-.1.2 0 .2 0 .3.1l.1.3c0 .1 0 .2-.1.2l-2.3.8c-.1 0-.3.1-.4.1-.1 0-.2 0-.2-.3l-.2-1.3c-.6.9-1.9 1.5-3 1.5-.6 0-1.3-.1-2.1-1-.9-1.2-.9-1.9-.9-4.3V32c0-.6-.3-.8-.8-.8-.4 0-.5 0-.5-.2v-.4c0-.1 0-.2.2-.2H62c.2 0 .3.1.2.3 0 .2-.1 1.2-.1 2.5v1.6c0 .9-.2 2.3.5 3.3.5.8 1.2.8 1.8.8.6 0 1.5-.6 1.9-1.1.1-.1.2-.4.2-.6V32c0-.6-.4-.7-.9-.8-.4 0-.5 0-.5-.2v-.4c0-.2 0-.2.3-.2h2.7c.1 0 .2.1.2.2 0 .2-.1.8-.1 2.9v1.6zm4.8 1.7c0 1.6.7 1.9 1.1 1.9.5 0 1.1-.1 1.4-.3.1-.1.2 0 .3 0l.1.2c.1.1 0 .2 0 .2-.2.2-1.1.9-2.4.9-1.1 0-2.1-1-2.1-1.9 0-.9.1-2.8.1-3.1v-3.3h-1.3c-.2 0-.3-.1-.3-.3 0-.2.1-.2.4-.4.5-.3 2.2-2 2.5-2.8.1-.2.2-.2.3-.2.2 0 .2.2.2.3l-.1 2.2h3c.1 0 .2.1.2.2l-.2.8c0 .1-.1.2-.2.2h-2.8c0 1-.1 2.1-.1 3.1l-.1 2.3zm5-9.2c0-1.3-.3-1.6-1-1.8l-.4-.1c-.1 0-.2-.1-.2-.1v-.2c0-.1.1-.1.3-.2L79 24c.2-.1.3-.2.5-.2.1 0 .2.2.2.5s-.1 4.8-.1 5.9v1.4h.1c.8-.9 2-1.4 3-1.4.9 0 1.6.3 2.2.9 1 .9.9 2 .9 3.2v4.2c0 .3.3.3.8.3h.4c.2 0 .2 0 .2.2v.3c0 .2 0 .3-.2.3s-.9-.1-2.1-.1c-1.1 0-1.9.1-2.1.1-.2 0-.2-.1-.2-.2V39c0-.1 0-.2.2-.2h.5c.4 0 .8 0 .8-.4v-4c0-1.2-.1-2.1-.7-2.7-.4-.4-.9-.6-1.4-.6-.6 0-1.4.2-2 .9-.2.2-.4.7-.4 1.1v4.8c0 .7.1.9.5.9h.7c.2 0 .2 0 .2.2v.4c0 .2 0 .2-.2.2s-1.1-.1-2.1-.1c-1.1 0-1.9.1-2.1.1-.1 0-.2-.1-.2-.2V39c0-.2.1-.2.3-.2h.5c.3 0 .7-.1.7-.4.1-.4.1-2.8.1-4.2v-6.6zm11.1 6.1c0 .2-.1.5-.1 1.1 0 2.1 1.4 3.8 3.1 3.8 1.3 0 2.3-.8 2.6-1.5 0-.1.1-.1.2-.1l.3.2c.1 0 .1.1 0 .3-.4.9-1.5 2.4-3.5 2.4-1.2 0-2.6-.4-3.4-1.6-.8-1.1-1-1.9-1-3.5 0-.9.2-2.3 1.4-3.5.9-1 2-1.2 3.1-1.2 2.5 0 3.2 2.4 3.2 3.2 0 .3-.3.4-.6.4h-5.3zm3.5-.6c.4 0 .6-.1.6-.3 0-.5-.3-1.9-1.7-1.9-1 0-1.9.6-2.3 2.3 0-.1 3.4-.1 3.4-.1zm4.8.6c0-1.1-.2-1.3-.8-1.7l-.4-.2c-.1 0-.2-.1-.2-.2v-.1c0-.1 0-.1.2-.2l2.2-1.1c.1-.1.2-.1.3-.1.1 0 .2.1.2.3l.1 1.5c.7-1 1.7-1.9 2.6-1.9.7 0 1.1.5 1.1 1 0 .6-.5 1.1-.9 1.1-.2 0-.5-.1-.6-.2-.2-.1-.4-.2-.7-.2-.4 0-.9.2-1.3.9-.1.2-.2.6-.2.7v4.6c0 .7.2.9.6.9h1c.1 0 .2.1.2.2v.4c0 .1 0 .2-.1.2s-1.1-.1-2.3-.1c-1.4 0-2.3.1-2.4.1-.1 0-.1 0-.1-.2V39c0-.2 0-.2.2-.2h.9c.3 0 .5-.1.5-.4v-2.6l-.1-2.1zm14.7 4.7c0 .4.2.5.5.5h.7c.2 0 .2.1.2.2v.4c0 .2 0 .2-.2.2s-.8-.1-2.1-.1c-1.1 0-1.8.1-2 .1-.1 0-.2-.1-.2-.2V39c0-.2.1-.2.3-.2h.6c.2 0 .4-.1.4-.5v-4.7c0-.9 0-1.5-.6-2-.5-.4-1.1-.4-1.6-.4-.4 0-1.1.2-1.8.9-.4.5-.5 1.1-.5 1.5v4.5c0 .6.1.7.5.7h.5c.2 0 .2.1.2.2v.4c0 .1 0 .2-.2.2-.1 0-.7-.1-1.9-.1-1.1 0-1.8.1-1.9.1-.1 0-.2-.1-.2-.2V39c0-.1 0-.2.2-.2h.6c.3 0 .4-.1.4-.4v-5.1c0-.7-.4-1-.9-1.3l-.2-.1c-.2-.1-.2-.1-.2-.2v-.1c0-.1.1-.2.2-.2l1.9-1.1c.2-.1.3-.2.4-.2.1 0 .2.1.2.3l.2 1.3c.6-.8 1.9-1.6 3-1.6.7 0 1.3.1 1.9.5.7.4 1.2 1.5 1.2 2.1l.4 5.7zm8.4-.5c-1.6-1.5-2.3-4-2.3-6.1 0-2 .7-4.1 2.2-5.8 1.1-1.2 3.1-2.2 5.5-2.2 2 0 3.6.7 4.4 1.2.3.2.4.2.4 0l.2-.6c0-.1.1-.1.3-.1.2 0 .2 0 .2.4s.4 3.6.5 4.2c0 .1 0 .2-.1.2l-.3.1c-.1 0-.2 0-.2-.2-.3-.7-.8-1.8-1.7-2.7-.9-.9-2.1-1.7-3.8-1.7-3.9 0-5.5 3.5-5.5 6.7 0 1.3.4 3.7 2.1 5.6 1.5 1.7 2.7 1.8 4.2 1.8 2.5 0 4.4-1.4 5.4-2.8.1-.1.1-.1.2-.1l.3.2c.1 0 .1.1 0 .2-1.3 1.9-3.4 3.7-6.5 3.7-2.6 0-4.2-.8-5.5-2m19.1-1c0 1.2.3 1.6.7 1.6.4 0 .7-.2.8-.3.1-.1.1-.2.2-.1l.2.2c.1.1.1.2 0 .4-.2.3-.6 1.1-1.7 1.1-.8 0-1.4-.6-1.6-1.5-.5.5-1.2 1-2.2 1.3-.4.1-.8.1-1.3.1s-1.3-.4-1.3-1.8c0-1 .5-1.9 2.2-2.6 1-.4 2.1-1 2.5-1.3v-1.4c0-.4-.1-.9-.3-1.2-.2-.3-.7-.5-1.3-.5-.4 0-1.1.2-1.4.5-.3.3-.1.6-.1 1 0 .8-.3 1.2-1.2 1.2-.4 0-.5-.2-.5-.7 0-.7.6-1.5 1.5-2.1.9-.5 1.7-.8 2.7-.8 1 0 1.4.3 1.8.6.5.5.5 1 .5 1.6v3.3l-.2 1.4zm-1.6-2.2c-.8.6-2.9 1-2.9 2.8 0 .8.5 1.2 1.1 1.2.6 0 1.8-.8 1.8-1.4v-2.6zm7.1-1.7v5.1c0 .4.1.7.6.7h1c.2 0 .2.1.2.2v.4c0 .1 0 .2-.1.2-.2 0-1.1-.1-2.5-.1s-2.3.1-2.5.1c-.1 0-.2-.1-.2-.2V39c0-.2 0-.2.3-.2h1.1c.2 0 .5-.2.5-.5v-7.1c0-1.6 0-3.5-.1-4.1 0-.7-.4-1.1-1.1-1.3l-.4-.2c-.1 0-.1-.1-.1-.1v-.2c0-.1.1-.1.2-.2.8-.4 1.7-.7 2.6-1.3.2-.1.3-.2.5-.2s.2.1.2.4c0 1.2-.1 5.8-.1 7l-.1 2zm4 .2c0-.7-.1-1.1-1.2-1.3-.2 0-.2-.1-.2-.2v-.2c0-.1 0-.1.2-.2.7-.3 1.5-.6 2.4-1.1.2-.1.3-.1.4-.1.1 0 .1.1.1.3v7.9c0 .4.1.6.4.6h1c.2 0 .2.1.2.2v.4c0 .2 0 .2-.2.2s-1.2-.1-2.1-.1c-1.3 0-2.1.1-2.4.1-.1 0-.2 0-.2-.2V39c0-.1.1-.2.2-.2h1.1c.2 0 .3-.1.4-.4v-2l-.1-3.2zm-1-6.7c0-.5.5-1.1 1.3-1.1s1.1.6 1.1 1.1c0 .6-.4 1.2-1.3 1.2-.4-.1-1.1-.5-1.1-1.2m6.5 5h-1.5c-.1 0-.2 0-.1-.2l.1-.7c0-.1.1-.2.3-.2h1.3V30c0-2.2.6-3.6 1.5-4.5 1.2-1.3 2.4-1.7 3.6-1.7 1 0 2 .4 2 1.2 0 .5-.6.9-.9.9-.2 0-.4 0-.6-.1-.2-.1-.4-.4-.5-.5-.3-.4-.6-.5-1-.5-.6 0-1.2.2-1.6.8-.8 1-.8 2.9-.8 4.5v.4h2.6c.2 0 .2.1.2.2l-.1.7c0 .1-.1.1-.3.1h-2.4v6.7c0 .4.1.6.6.6h1.2c.2 0 .2 0 .2.2v.4c0 .2 0 .3-.2.3-.1 0-.9-.1-2.6-.1-1.2 0-2.3.1-2.5.1-.1 0-.2 0-.2-.2V39c0-.1 0-.2.2-.2h1.1c.4 0 .5-.3.5-.8v-4l-.1-2.5z"/><path class="st1" d="M159.8 38.3c-1-1.2-1.2-2-1.2-3.6 0-1.1.6-2.5 1.9-3.5 1.1-.9 2.2-1.1 2.9-1.1 1.2 0 2.4.6 3.1 1.3 1 1 1.5 2.1 1.5 3.6 0 2.4-2.1 4.8-4.8 4.8-1.1 0-2.5-.4-3.4-1.5m6.3-3.5c0-2.4-1.8-4-2.9-4-.6 0-1.2.1-1.7.7-.9.9-1.2 1.8-1.2 3.4 0 1.2.1 2.1.8 3.1.5.7 1.1 1.1 2.2 1.1 1.7 0 2.8-2 2.8-4.3m3.6-1.1c0-1.1-.2-1.3-.8-1.7l-.4-.2c-.1 0-.2-.1-.2-.2v-.1c0-.1 0-.1.2-.2l2.2-1.1c.1-.1.2-.1.3-.1.1 0 .2.1.2.3l.1 1.5h.1c.7-1 1.7-1.9 2.6-1.9.7 0 1.1.5 1.1 1 0 .6-.5 1.1-.9 1.1-.2 0-.5-.1-.6-.2-.2-.1-.4-.2-.7-.2-.4 0-.9.2-1.3.9-.1.2-.2.6-.2.7v4.6c0 .7.2.9.6.9h1c.1 0 .2.1.2.2v.4c0 .1 0 .2-.1.2s-1.1-.1-2.3-.1c-1.4 0-2.3.1-2.4.1-.1 0-.1 0-.1-.2V39c0-.2 0-.2.2-.2h.9c.3 0 .5-.1.5-.4v-2.6l-.2-2.1z"/><path class="st1" d="M184.4 38.4c0 .4.2.5.5.5h.7c.2 0 .2.1.2.2v.4c0 .2 0 .2-.2.2-.1 0-.8-.1-2.1-.1-1.1 0-1.8.1-2 .1-.1 0-.2-.1-.2-.2V39c0-.2.1-.2.3-.2h.6c.2 0 .4-.1.4-.5v-4.7c0-.9 0-1.5-.6-2-.5-.4-1.1-.4-1.6-.4-.4 0-1.1.2-1.8.9-.4.5-.5 1.1-.5 1.5v4.5c0 .6.1.7.5.7h.5c.2 0 .2.1.2.2v.4c0 .1 0 .2-.2.2s-.7-.1-1.9-.1c-1.1 0-1.8.1-1.9.1-.1 0-.2-.1-.2-.2V39c0-.1 0-.2.2-.2h.6c.3 0 .4-.1.4-.4v-5.1c0-.7-.4-1-.9-1.3l-.2-.1c-.2-.1-.2-.1-.2-.2v-.1c0-.1.1-.2.2-.2l1.9-1.1c.2-.1.3-.2.4-.2.1 0 .2.1.2.3l.2 1.3c.6-.8 1.9-1.6 3-1.6.7 0 1.3.1 1.9.5.7.4 1.2 1.5 1.2 2.1l.4 5.7zm3.6-5.2c0-.7-.1-1.1-1.2-1.3-.1 0-.2-.1-.2-.2v-.2c0-.1 0-.1.2-.2.7-.3 1.5-.6 2.4-1.1.2-.1.3-.1.4-.1.1 0 .1.1.1.3v7.9c0 .4.1.6.4.6h1c.2 0 .2.1.2.2v.4c0 .2 0 .2-.2.2s-1.2-.1-2.1-.1c-1.3 0-2.1.1-2.4.1-.1 0-.2 0-.2-.2V39c0-.1.1-.2.2-.2h1.1c.2 0 .3-.1.4-.4v-2l-.1-3.2zm-1-6.7c0-.5.5-1.1 1.3-1.1s1.1.6 1.1 1.1c0 .6-.4 1.2-1.3 1.2-.4-.1-1.1-.5-1.1-1.2m11.1 10.4c0 1.2.3 1.6.7 1.6.4 0 .7-.2.8-.3.1-.1.1-.2.2-.1l.2.2c.1.1.1.2 0 .4-.2.3-.6 1.1-1.7 1.1-.8 0-1.4-.6-1.6-1.5-.5.5-1.2 1-2.2 1.3-.4.1-.8.1-1.3.1s-1.3-.4-1.3-1.8c0-1 .5-1.9 2.2-2.6 1-.4 2.1-1 2.5-1.3v-1.4c0-.4-.1-.9-.3-1.2-.2-.3-.7-.5-1.3-.5-.4 0-1.1.2-1.4.5-.3.3-.1.6-.1 1 0 .8-.3 1.2-1.2 1.2-.4 0-.5-.2-.5-.7 0-.7.6-1.5 1.5-2.1.9-.5 1.7-.8 2.7-.8 1 0 1.4.3 1.7.6.5.5.5 1 .5 1.6v3.3l-.1 1.4zm-1.6-2.2c-.8.6-2.9 1-2.9 2.8 0 .8.5 1.2 1.1 1.2.6 0 1.8-.8 1.8-1.4v-2.6z"/></svg>